<svg width="10" height="10" viewBox="0 0 10 10" fill="none" xmlns="http://www.w3.org/2000/svg">
<path d="M9.61277 3.05473C9.36388 2.46029 8.99721 1.92806 8.54055 1.46501C8.08326 1.01026 7.54355 0.646745 6.95027 0.393902C6.33583 0.132437 5.6747 -0.00156499 5.00694 1.37897e-05C4.33611 1.37897e-05 3.67917 0.138347 3.05695 0.400846C2.46195 0.649734 1.92945 1.01584 1.46612 1.47195C1.01108 1.92886 0.64728 2.4683 0.394179 3.06139C0.132559 3.67531 -0.00154428 4.336 1.3416e-05 5.00333C1.3416e-05 5.67389 0.131402 6.33027 0.394457 6.94527C0.643067 7.53972 1.00973 8.07194 1.46612 8.53499C1.9235 8.98976 2.4633 9.35327 3.05667 9.6061C3.67111 9.86756 4.33224 10.0016 5 9.99999C5.67083 9.99999 6.32777 9.8686 6.94333 9.6061C7.53777 9.35721 8.07055 8.9911 8.53388 8.53499C8.98895 8.078 9.35275 7.53847 9.60582 6.94527C9.8674 6.33144 10.0015 5.67085 9.99999 5.00361C9.99999 4.33306 9.8686 3.67667 9.61277 3.05473ZM5.00694 9.1361C2.72473 9.1361 0.864456 7.27722 0.864456 4.99667C0.864456 2.71612 2.72473 0.856956 5.00694 0.856956C7.28916 0.856956 9.14943 2.71584 9.14943 4.99667C9.14943 7.27722 7.28916 9.1361 5.00694 9.1361Z" fill="black"/>
<path d="M4.93012 2.69317C4.93064 2.63785 4.92015 2.58298 4.89924 2.53176C4.87834 2.48053 4.84744 2.43399 4.80836 2.39483C4.76928 2.35567 4.7228 2.32468 4.67162 2.30368C4.62044 2.28267 4.56559 2.27206 4.51027 2.27247C4.45495 2.27206 4.4001 2.28267 4.34892 2.30368C4.29774 2.32468 4.25125 2.35567 4.21217 2.39483C4.17309 2.43399 4.1422 2.48053 4.12129 2.53176C4.10039 2.58298 4.08989 2.63785 4.09041 2.69317V5.48812C4.08989 5.54344 4.10039 5.59831 4.12129 5.64953C4.1422 5.70075 4.17309 5.7473 4.21217 5.78646C4.25125 5.82562 4.29774 5.8566 4.34892 5.87761C4.4001 5.89862 4.45495 5.90922 4.51027 5.90881C4.53153 5.90881 4.54579 5.90881 4.56733 5.90182C4.58132 5.90182 4.60285 5.90881 4.62411 5.90881H7.30716C7.36246 5.90919 7.41728 5.89855 7.46843 5.87753C7.51958 5.8565 7.56603 5.82551 7.60508 5.78636C7.64413 5.7472 7.675 5.70067 7.69588 5.64946C7.71677 5.59826 7.72726 5.54341 7.72674 5.48812C7.72726 5.43279 7.71676 5.37792 7.69586 5.3267C7.67495 5.27548 7.64406 5.22893 7.60498 5.18977C7.5659 5.15062 7.51941 5.11963 7.46823 5.09862C7.41705 5.07762 7.3622 5.06701 7.30688 5.06742H4.93712V2.69317H4.93012Z" fill="black"/>
</svg>
