<svg width="9" height="9" viewBox="0 0 9 9" fill="none" xmlns="http://www.w3.org/2000/svg">
<path d="M0.250603 5.1048H2.81869C2.97526 5.1048 3.06924 5.23008 3.06924 5.35536C3.06924 5.51197 2.94396 5.6059 2.81869 5.6059H0.845658C1.44068 6.8273 2.66209 7.6729 4.07141 7.6729C5.85653 7.6729 7.35978 6.32622 7.61032 4.60374H8.14274C7.89221 6.60809 6.16971 8.17397 4.07141 8.17397C2.53682 8.17397 1.22148 7.32838 0.501154 6.07567L0.501154 7.92344C0.501154 8.04871 0.407222 8.17398 0.250603 8.17398C0.125337 8.17398 6.10352e-05 8.04871 6.10352e-05 7.92344L6.10352e-05 5.35536C7.09134e-05 5.1048 0.250603 5.1048 0.250603 5.1048ZM7.9235 3.06914H5.35546C5.19885 3.06914 5.10492 2.94386 5.10492 2.81859C5.10492 2.66204 5.23019 2.56805 5.35546 2.56805H7.29715C6.73343 1.34668 5.48072 0.532377 4.07141 0.532377C2.28628 0.532377 0.78303 1.87906 0.532488 3.60154H0.0314145C0.281956 1.56587 2.0044 0 4.07141 0C5.60599 0 6.95263 0.845557 7.64167 2.0983V0.250541C7.64167 0.0939322 7.76694 0 7.89221 0C8.04879 0 8.14275 0.125265 8.14275 0.250541V2.81858C8.17405 3.06914 7.9235 3.06914 7.9235 3.06914Z" fill="black"/>
</svg>
