<svg width="90" height="22" viewBox="0 0 90 22" fill="none" xmlns="http://www.w3.org/2000/svg">
<rect x="0.458333" y="0.458333" width="55.9167" height="21.0833" rx="7.5826" stroke="#E8E3E7" stroke-width="0.916667"/>
<path d="M22.6789 14.7021C22.6789 14.8561 22.6251 15.0101 22.5174 15.1275C22.3021 15.3624 21.9529 15.3624 21.7375 15.1275L15.9239 8.78531L10.1102 15.1275C9.89483 15.3624 9.54569 15.3624 9.33034 15.1275C9.11499 14.8926 9.11499 14.5117 9.33034 14.2768L15.534 7.50919C15.7493 7.27428 16.0984 7.27428 16.3138 7.50919L22.5174 14.2768C22.6251 14.3942 22.6789 14.5482 22.6789 14.7021Z" fill="#B2B2B2"/>
<path d="M49.9481 7.29785C49.9481 7.14391 49.8942 6.98995 49.7866 6.87247C49.5712 6.63756 49.2221 6.63756 49.0067 6.87247L43.193 13.2147L37.3793 6.87247C37.164 6.63756 36.8149 6.63756 36.5995 6.87247C36.3842 7.10742 36.3842 7.48828 36.5995 7.72323L42.8031 14.4908C43.0185 14.7257 43.3676 14.7257 43.583 14.4908L49.7866 7.72323C49.8942 7.60576 49.9481 7.4518 49.9481 7.29785Z" fill="#461C3A"/>
<circle cx="78.8362" cy="11" r="11" fill="#461C3A"/>
<path d="M79.8631 10.6625L84.8494 10.661C85.1264 10.662 85.3512 10.8877 85.3501 11.1653C85.3491 11.4428 85.1244 11.6666 84.8473 11.6666H84.8453L79.863 11.6682L78.8574 11.6646L73.7886 11.6619C73.5111 11.6609 73.2863 11.4351 73.2878 11.1576C73.2889 10.88 73.5151 10.6562 73.7922 10.6562C73.7922 10.6562 76.9522 10.6618 78.8575 10.659L79.8631 10.6625Z" fill="#E8E3E7"/>
</svg>
