<svg width="2" height="171" viewBox="0 0 2 171" fill="none" xmlns="http://www.w3.org/2000/svg">
<path d="M1.5 0.75C1.50056 0.551088 1.42203 0.360322 1.28137 0.21967C1.14073 0.0790176 0.949472 -8.71919e-09 0.75 0C0.550528 8.71919e-09 0.359273 0.0790177 0.21863 0.21967C0.0779682 0.360322 -0.000559398 0.551088 0 0.75C0.00781262 3.56667 0.0156252 6.38333 0.0234379 9.2C0.164065 59.9 0.304692 110.6 0.44532 161.3C0.453132 164.117 0.460945 166.933 0.468757 169.75C0.468967 169.824 0.498781 169.896 0.551523 169.948C0.604271 170.001 0.675624 170.03 0.750007 170.03C0.82439 170.03 0.895744 170.001 0.948492 169.948C1.00123 169.896 1.03105 169.824 1.03126 169.75C1.03907 166.933 1.04688 164.117 1.05469 161.3C1.19532 110.6 1.33594 59.9 1.47656 9.2C1.48438 6.38333 1.49219 3.56667 1.5 0.75Z" fill="url(#paint0_linear_226_1990)"/>
<defs>
<linearGradient id="paint0_linear_226_1990" x1="0.25" y1="0.75" x2="0.250007" y2="169.75" gradientUnits="userSpaceOnUse">
<stop offset="0.365385" stop-color="#461C3A"/>
<stop offset="1" stop-color="#9C97FF"/>
</linearGradient>
</defs>
</svg>
