<svg width="2" height="114" viewBox="0 0 2 114" fill="none" xmlns="http://www.w3.org/2000/svg">
<path d="M1.5 0.75C1.50084 0.551088 1.42257 0.360322 1.2819 0.21967C1.14126 0.0790176 0.949756 -8.73163e-09 0.75 0C0.550244 8.73163e-09 0.358739 0.0790177 0.2181 0.21967C0.077434 0.360322 -0.00084407 0.551088 0 0.75C0.00781258 2.61667 0.0156252 4.48333 0.0234377 6.35C0.164064 39.95 0.304691 73.55 0.445317 107.15C0.45313 109.017 0.460942 110.883 0.468755 112.75C0.46907 112.824 0.498978 112.896 0.551717 112.948C0.604467 113.001 0.675728 113.03 0.750005 113.03C0.824282 113.03 0.895543 113.001 0.948293 112.948C1.00103 112.896 1.03094 112.824 1.03125 112.75C1.03907 110.883 1.04688 109.017 1.05469 107.15C1.19532 73.55 1.33594 39.95 1.47656 6.35C1.48438 4.48333 1.49219 2.61667 1.5 0.75Z" fill="url(#paint0_linear_233_1400)"/>
<defs>
<linearGradient id="paint0_linear_233_1400" x1="0.25" y1="0.75" x2="0.250005" y2="112.75" gradientUnits="userSpaceOnUse">
<stop offset="0.365385" stop-color="#461C3A"/>
<stop offset="1" stop-color="#9C97FF"/>
</linearGradient>
</defs>
</svg>
