<svg width="20" height="20" viewBox="0 0 20 20" fill="none" xmlns="http://www.w3.org/2000/svg">
<path d="M2.5226 15.4601L8.63852 2.1394L8.6446 2.1278C8.74717 1.91751 8.90669 1.74023 9.10504 1.61612C9.30338 1.49202 9.53257 1.42607 9.76654 1.42578C10.0005 1.42549 10.2299 1.49088 10.4285 1.6145C10.6272 1.73811 10.7871 1.915 10.8902 2.12504L10.8963 2.13664L17.0094 15.4601C17.1235 15.6926 17.1614 15.9551 17.1178 16.2103C17.0742 16.4656 16.9512 16.7006 16.7664 16.882L16.7498 16.8986C16.5617 17.0839 16.3189 17.2038 16.0575 17.2407C15.796 17.2776 15.5296 17.2295 15.2975 17.1035L15.2831 17.0958L9.76768 13.9934L4.25225 17.0958L4.23789 17.1035C4.00548 17.2266 3.74021 17.2732 3.47979 17.2367C3.21937 17.2003 2.97708 17.0826 2.78738 16.9005C2.59769 16.7184 2.47026 16.4811 2.42321 16.2224C2.37617 15.9637 2.40915 15.6973 2.5226 15.4601Z" fill="white"/>
</svg>
