<svg width="16" height="16" viewBox="0 0 16 16" fill="none" xmlns="http://www.w3.org/2000/svg">
<path d="M7.5 6.44949V10.9995C7.5 11.1321 7.55268 11.2593 7.64645 11.353C7.74021 11.4468 7.86739 11.4995 8 11.4995C8.13261 11.4995 8.25979 11.4468 8.35355 11.353C8.44732 11.2593 8.5 11.1321 8.5 10.9995V6.44949C9.10702 6.32558 9.64641 5.9807 10.0136 5.4817C10.3808 4.98269 10.5496 4.36513 10.4873 3.74873C10.4251 3.13233 10.1361 2.561 9.67658 2.14552C9.21701 1.73004 8.61954 1.5 8 1.5C7.38046 1.5 6.78299 1.73004 6.32342 2.14552C5.86385 2.561 5.57493 3.13233 5.51266 3.74873C5.45039 4.36513 5.61921 4.98269 5.9864 5.4817C6.35359 5.9807 6.89298 6.32558 7.5 6.44949ZM8 2.49949C8.29667 2.49949 8.58668 2.58746 8.83335 2.75229C9.08003 2.91711 9.27229 3.15138 9.38582 3.42546C9.49935 3.69955 9.52906 4.00115 9.47118 4.29213C9.4133 4.5831 9.27044 4.85037 9.06066 5.06015C8.85088 5.26993 8.58361 5.41279 8.29264 5.47067C8.00166 5.52855 7.70006 5.49884 7.42597 5.38531C7.15189 5.27178 6.91762 5.07952 6.7528 4.83285C6.58797 4.58617 6.5 4.29616 6.5 3.99949C6.5 3.60167 6.65804 3.22013 6.93934 2.93883C7.22064 2.65753 7.60218 2.49949 8 2.49949ZM15 10.9995C15 12.9482 11.3931 13.9995 8 13.9995C4.60687 13.9995 1 12.9482 1 10.9995C1 10.5157 1.23812 9.80386 2.375 9.16136C3.14125 8.72761 4.195 8.39449 5.42312 8.19761C5.48809 8.18736 5.55444 8.18999 5.61838 8.20537C5.68232 8.22076 5.74261 8.24858 5.7958 8.28726C5.84899 8.32594 5.89405 8.37472 5.92838 8.43082C5.96272 8.48691 5.98568 8.54921 5.99594 8.61418C6.0062 8.67914 6.00356 8.74549 5.98818 8.80943C5.9728 8.87338 5.94497 8.93367 5.90629 8.98686C5.86761 9.04005 5.81883 9.0851 5.76274 9.11944C5.70664 9.15378 5.64434 9.17673 5.57937 9.18699C4.48312 9.36324 3.51687 9.66387 2.86562 10.0339C2.31562 10.3432 2 10.6957 2 10.9995C2 11.8345 4.2825 12.9995 8 12.9995C11.7175 12.9995 14 11.8345 14 10.9995C14 10.6957 13.6844 10.3432 13.1344 10.0314C12.4806 9.66136 11.5169 9.36074 10.4206 9.18449C10.3543 9.17582 10.2904 9.15393 10.2326 9.12011C10.1749 9.08628 10.1245 9.04122 10.0846 8.98758C10.0446 8.93394 10.0157 8.87283 9.99979 8.80785C9.98385 8.74287 9.98111 8.67535 9.99173 8.60929C10.0024 8.54323 10.0261 8.47998 10.0617 8.42328C10.0972 8.36658 10.1437 8.31758 10.1985 8.27919C10.2533 8.2408 10.3152 8.2138 10.3807 8.19979C10.4461 8.18578 10.5137 8.18504 10.5794 8.19761C11.8075 8.39449 12.8612 8.72761 13.6275 9.16136C14.7619 9.80386 15 10.5157 15 10.9995Z" fill="#2C2828"/>
</svg>
