<svg width="14" height="14" viewBox="0 0 14 14" fill="none" xmlns="http://www.w3.org/2000/svg">
<path d="M12.8138 6.28121L10.3529 8.40473L11.1026 11.5804C11.144 11.7528 11.1333 11.9336 11.072 12.1C11.0107 12.2663 10.9014 12.4107 10.7581 12.515C10.6147 12.6193 10.4436 12.6788 10.2665 12.6859C10.0893 12.693 9.91405 12.6474 9.76278 12.555L7.00106 10.8553L4.23771 12.555C4.08645 12.6469 3.91139 12.692 3.73455 12.6846C3.55771 12.6773 3.387 12.6177 3.24393 12.5135C3.10085 12.4093 2.9918 12.2651 2.93051 12.0991C2.86922 11.9331 2.85843 11.7526 2.8995 11.5804L3.652 8.40473L1.19106 6.28121C1.05724 6.16555 0.960461 6.01303 0.912805 5.8427C0.865149 5.67236 0.868731 5.49176 0.923104 5.32345C0.977477 5.15514 1.08023 5.00658 1.21853 4.89632C1.35684 4.78606 1.52456 4.71899 1.70075 4.70348L4.92731 4.44317L6.172 1.43098C6.23937 1.26682 6.35404 1.1264 6.50142 1.02757C6.64881 0.928744 6.82225 0.875977 6.9997 0.875977C7.17715 0.875977 7.35059 0.928744 7.49797 1.02757C7.64535 1.1264 7.76002 1.26682 7.82739 1.43098L9.07153 4.44317L12.2981 4.70348C12.4746 4.71841 12.6429 4.78511 12.7817 4.89522C12.9205 5.00532 13.0237 5.15395 13.0784 5.32246C13.1331 5.49098 13.1369 5.67189 13.0892 5.84254C13.0416 6.01318 12.9446 6.16597 12.8105 6.28176L12.8138 6.28121Z" fill="#FFD700"/>
</svg>
