<svg preserveAspectRatio="none" width="100%" height="100%" overflow="visible" style="display: block;" viewBox="0 0 14.0005 12.5" fill="none" xmlns="http://www.w3.org/2000/svg">
<path id="Vector" d="M13.9888 7.3125L13.2388 1.3125C13.1931 0.949926 13.0166 0.616499 12.7425 0.37483C12.4684 0.133161 12.1154 -0.000125349 11.75 8.84579e-08H1C0.734784 8.84579e-08 0.48043 0.105357 0.292893 0.292893C0.105357 0.48043 0 0.734784 0 1V6.5C0 6.76522 0.105357 7.01957 0.292893 7.20711C0.48043 7.39464 0.734784 7.5 1 7.5H3.69125L6.0525 12.2238C6.09407 12.3068 6.15795 12.3767 6.237 12.4255C6.31604 12.4743 6.40711 12.5001 6.5 12.5C7.16304 12.5 7.79893 12.2366 8.26777 11.7678C8.73661 11.2989 9 10.663 9 10V9H12.5C12.7129 9.00007 12.9233 8.95484 13.1173 8.86732C13.3113 8.77979 13.4845 8.65197 13.6253 8.49235C13.7662 8.33273 13.8714 8.14497 13.9341 7.94154C13.9967 7.73812 14.0154 7.52369 13.9888 7.3125ZM3.5 6.5H1V1H3.5V6.5ZM12.875 7.83062C12.8284 7.88423 12.7708 7.92712 12.706 7.95635C12.6413 7.98559 12.571 8.00048 12.5 8H8.5C8.36739 8 8.24021 8.05268 8.14645 8.14645C8.05268 8.24021 8 8.36739 8 8.5V10C8.0001 10.3468 7.88002 10.6829 7.66021 10.9512C7.4404 11.2194 7.13443 11.4032 6.79437 11.4712L4.5 6.88188V1H11.75C11.8718 0.999958 11.9895 1.04439 12.0808 1.12494C12.1722 1.2055 12.231 1.31664 12.2463 1.4375L12.9963 7.4375C13.0056 7.5079 12.9996 7.57949 12.9787 7.64735C12.9578 7.71521 12.9224 7.77773 12.875 7.83062Z" fill="var(--fill-0, #1E1E1E)"/>
</svg>
