<svg preserveAspectRatio="none" width="100%" height="100%" overflow="visible" style="display: block;" viewBox="0 0 113.03 1.50001" fill="none" xmlns="http://www.w3.org/2000/svg">
<path id="Line 23" d="M0.75 6.73532e-06C0.551088 -0.000837326 0.360322 0.0774407 0.21967 0.218107C0.0790176 0.358745 0 0.55025 0 0.750007C0 0.949763 0.0790176 1.14127 0.21967 1.28191C0.360322 1.42257 0.551088 1.50085 0.75 1.50001C2.61667 1.49219 4.48333 1.48438 6.35 1.47657C39.95 1.33594 73.55 1.19532 107.15 1.05469C109.017 1.04688 110.883 1.03907 112.75 1.03126C112.824 1.03094 112.896 1.00103 112.948 0.948294C113.001 0.895545 113.03 0.824284 113.03 0.750007C113.03 0.67573 113.001 0.604469 112.948 0.551719C112.896 0.49898 112.824 0.469072 112.75 0.468757C110.883 0.460944 109.017 0.453132 107.15 0.445319C73.55 0.304694 39.95 0.164069 6.35 0.0234442C4.48333 0.0156317 2.61667 0.00781924 0.75 6.73532e-06Z" fill="url(#paint0_linear_0_34)"/>
<defs>
<linearGradient id="paint0_linear_0_34" x1="0.75" y1="1.25001" x2="112.75" y2="1.25001" gradientUnits="userSpaceOnUse">
<stop offset="0.365385" stop-color="#461C3A"/>
<stop offset="1" stop-color="#9C97FF"/>
</linearGradient>
</defs>
</svg>
