<svg preserveAspectRatio="none" width="100%" height="100%" overflow="visible" style="display: block;" viewBox="0 0 98 28" fill="none" xmlns="http://www.w3.org/2000/svg">
<g id="Group 121">
<g id="Group 85">
<circle id="Ellipse 15" cx="84" cy="14" r="13.75" fill="var(--fill-0, #F8F8F8)" stroke="var(--stroke-0, #CFCFCF)" stroke-width="0.5"/>
<circle id="Ellipse 18" cx="49" cy="14" r="13.75" fill="var(--fill-0, #F8F8F8)" stroke="var(--stroke-0, #CFCFCF)" stroke-width="0.5"/>
<circle id="Ellipse 19" cx="14" cy="14" r="13.75" fill="var(--fill-0, #F8F8F8)" stroke="var(--stroke-0, #CFCFCF)" stroke-width="0.5"/>
</g>
<path id="Vector" d="M53.7376 12.7835L51.295 10.2025V11.8959H50.515C48.2268 11.8959 46.3536 13.5549 46.1153 15.675C47.1679 14.4531 48.7837 13.6739 50.5091 13.6739H51.2868L51.2919 15.3665L53.7372 12.7835H53.7376ZM49.7291 14.5151C47.7666 14.8268 46.1052 16.2819 45.7413 18.1305C45.4569 17.5029 45.3097 16.8219 45.3096 16.1329C45.3096 13.3615 47.6402 11.1159 50.515 11.1159V9.14477C50.5079 9.09453 50.5128 9.04334 50.5293 8.99535C50.5457 8.94737 50.5733 8.90396 50.6097 8.86864C50.677 8.8053 50.766 8.77002 50.8584 8.77002C50.9508 8.77002 51.0397 8.8053 51.107 8.86864L54.5695 12.5277C54.6036 12.5603 54.6302 12.6 54.6474 12.644C54.6646 12.688 54.6719 12.7352 54.6689 12.7823C54.6719 12.8295 54.6646 12.8768 54.6474 12.9209C54.6302 12.9649 54.6036 13.0047 54.5695 13.0374L51.1261 16.6762C51.0949 16.7136 51.0563 16.744 51.0126 16.7655C50.9689 16.787 50.9211 16.7991 50.8725 16.8009C50.8238 16.8028 50.7753 16.7943 50.7301 16.7762C50.6849 16.7581 50.644 16.7306 50.6101 16.6957C50.5736 16.6604 50.5459 16.617 50.5293 16.569C50.5128 16.521 50.5079 16.4698 50.515 16.4195L50.5091 14.4535C50.2634 14.4535 50.0197 14.4718 49.7806 14.5069L49.7291 14.5147V14.5151Z" fill="var(--fill-0, #461C3A)"/>
<path id="Vector_2" d="M13.9372 17.2059C13.9785 17.1847 14.0239 17.1737 14.07 17.1737C14.1161 17.1737 14.1615 17.1847 14.2028 17.2059L16.7248 18.5005C16.7412 18.5089 16.7595 18.5125 16.7778 18.5109C16.796 18.5093 16.8135 18.5026 16.8283 18.4913C16.843 18.4801 16.8546 18.4649 16.8617 18.4473C16.8688 18.4298 16.8711 18.4105 16.8684 18.3917L16.4685 15.4874C16.4619 15.4398 16.4659 15.3913 16.4801 15.3456C16.4943 15.2998 16.5183 15.2581 16.5504 15.2236L18.5095 13.1195C18.5223 13.1058 18.5312 13.0888 18.5354 13.0702C18.5396 13.0516 18.5388 13.0322 18.5331 13.014C18.5275 12.9959 18.5171 12.9797 18.5033 12.9672C18.4894 12.9547 18.4726 12.9464 18.4545 12.9431L15.6851 12.4429C15.6397 12.4347 15.5967 12.4157 15.5594 12.3875C15.5222 12.3592 15.4916 12.3225 15.4701 12.28L14.1586 9.68459C14.1501 9.66779 14.1373 9.65373 14.1217 9.64393C14.1061 9.63412 14.0882 9.62894 14.0699 9.62894C14.0517 9.62894 14.0338 9.63412 14.0181 9.64393C14.0025 9.65373 13.9897 9.66779 13.9812 9.68459L12.6697 12.2798C12.6482 12.3223 12.6177 12.359 12.5804 12.3873C12.5431 12.4155 12.5001 12.4345 12.4547 12.4427L9.68552 12.9431C9.66739 12.9463 9.65044 12.9545 9.63653 12.967C9.62261 12.9795 9.61226 12.9957 9.60661 13.014C9.60095 13.0322 9.60022 13.0516 9.60448 13.0703C9.60874 13.0889 9.61783 13.1059 9.63076 13.1195L11.5894 15.2236C11.6543 15.2933 11.6847 15.3909 11.6715 15.4874L11.2714 18.3917C11.2689 18.4105 11.2714 18.4296 11.2786 18.447C11.2857 18.4645 11.2972 18.4796 11.312 18.4908C11.3267 18.5019 11.3441 18.5087 11.3622 18.5104C11.3803 18.5121 11.3986 18.5087 11.415 18.5005L13.9372 17.2059ZM14.07 17.8382L11.6808 19.0647C11.598 19.1072 11.508 19.1323 11.4158 19.1385C11.3237 19.1447 11.2313 19.1319 11.1439 19.1008C11.0565 19.0697 10.9759 19.0209 10.9066 18.9573C10.8373 18.8937 10.7808 18.8165 10.7403 18.7301C10.6778 18.5975 10.6552 18.4483 10.6754 18.3021L11.0544 15.551L9.1988 13.5579C9.06888 13.4182 8.99741 13.2306 9.00007 13.0362C9.00273 12.8417 9.0793 12.6563 9.213 12.5206C9.31445 12.4178 9.4434 12.3493 9.5829 12.3242L12.2063 11.8499L13.4486 9.39138C13.5081 9.27331 13.5974 9.17444 13.7069 9.10545C13.8165 9.03647 13.942 9 14.07 9C14.198 9 14.3236 9.03647 14.4331 9.10545C14.5426 9.17444 14.6319 9.27331 14.6914 9.39138L15.9337 11.8499L18.5571 12.3237C18.7409 12.3572 18.9045 12.4652 19.0118 12.6242C19.1192 12.7831 19.1615 12.98 19.1296 13.1715C19.1055 13.317 19.0398 13.4516 18.941 13.5576L17.0854 15.5508L17.4647 18.3021C17.4913 18.4944 17.4436 18.6899 17.3319 18.8456C17.2203 19.0013 17.0539 19.1044 16.8692 19.1323C16.7291 19.1534 16.5861 19.13 16.4592 19.0647L14.07 17.8382Z" fill="var(--fill-0, #461C3A)"/>
<path id="Vector_3" d="M85.768 18.36H85.7193C84.5752 18.3038 83.03 17.2448 81.5841 15.5293L81.0507 14.8995C79.6048 13.1839 78.8476 11.5078 79.0256 10.418C79.1501 9.64918 80.3149 9 80.9806 9C81.3081 9 81.4275 9.15979 81.4704 9.25606C81.8444 9.91461 82.3106 11.0572 82.3142 11.467V11.4958L82.3035 11.5232C82.2198 11.7385 82.0346 11.8414 81.8702 11.933C81.6535 12.0534 81.5312 12.1316 81.5155 12.3582C81.5119 12.4264 81.572 12.74 82.5251 13.8926L82.9327 14.376C83.8895 15.4845 84.1898 15.6035 84.2592 15.6128C84.4901 15.6456 84.6003 15.5487 84.7654 15.3688C84.8913 15.2304 85.0343 15.0773 85.2696 15.0439L85.301 15.0385L85.3296 15.0479C85.7472 15.1315 86.8098 15.8054 87.4176 16.3068C87.5034 16.363 87.6557 16.5328 87.5356 16.9052C87.3468 17.4902 86.5223 18.36 85.768 18.36Z" fill="var(--fill-0, #461C3A)"/>
</g>
</svg>
