<svg preserveAspectRatio="none" width="100%" height="100%" overflow="visible" style="display: block;" viewBox="0 0 14.0005 12.5" fill="none" xmlns="http://www.w3.org/2000/svg">
<path id="Vector" d="M13.625 4.0075C13.4842 3.84795 13.3111 3.72019 13.1171 3.63269C12.9231 3.54519 12.7128 3.49996 12.5 3.5H9V2.5C9 1.83696 8.73661 1.20107 8.26777 0.732233C7.79893 0.263392 7.16304 1.28189e-07 6.5 1.28189e-07C6.40711 -6.63752e-05 6.31604 0.0257445 6.237 0.0745385C6.15795 0.123333 6.09407 0.19318 6.0525 0.27625L3.69125 5H1C0.734784 5 0.48043 5.10536 0.292893 5.29289C0.105357 5.48043 0 5.73478 0 6V11.5C0 11.7652 0.105357 12.0196 0.292893 12.2071C0.48043 12.3946 0.734784 12.5 1 12.5H11.75C12.1154 12.5001 12.4684 12.3668 12.7425 12.1252C13.0166 11.8835 13.1931 11.5501 13.2388 11.1875L13.9888 5.1875C14.0153 4.97626 13.9966 4.76179 13.9339 4.55833C13.8712 4.35488 13.7659 4.16711 13.625 4.0075ZM1 6H3.5V11.5H1V6ZM12.9963 5.0625L12.2463 11.0625C12.231 11.1834 12.1722 11.2945 12.0808 11.3751C11.9895 11.4556 11.8718 11.5 11.75 11.5H4.5V5.61812L6.79437 1.02875C7.13443 1.09681 7.4404 1.2806 7.66021 1.54884C7.88002 1.81708 8.0001 2.1532 8 2.5V4C8 4.13261 8.05268 4.25979 8.14645 4.35355C8.24021 4.44732 8.36739 4.5 8.5 4.5H12.5C12.571 4.49998 12.6411 4.51505 12.7058 4.54423C12.7704 4.5734 12.8282 4.61601 12.8751 4.66922C12.9221 4.72242 12.9571 4.78501 12.978 4.85282C12.9989 4.92063 13.0051 4.9921 12.9963 5.0625Z" fill="var(--fill-0, #1E1E1E)"/>
</svg>
