<svg preserveAspectRatio="none" width="100%" height="100%" overflow="visible" style="display: block;" viewBox="0 0 12 12" fill="none" xmlns="http://www.w3.org/2000/svg">
<g id="map-pin">
<path id="Vector" d="M10.5 5.00006C10.5 8.50006 6 11.5001 6 11.5001C6 11.5001 1.5 8.50006 1.5 5.00006C1.5 3.80659 1.97411 2.66199 2.81802 1.81808C3.66193 0.974167 4.80653 0.500061 6 0.500061C7.19347 0.500061 8.33807 0.974167 9.18198 1.81808C10.0259 2.66199 10.5 3.80659 10.5 5.00006Z" stroke="var(--stroke-0, #999999)" stroke-linecap="round" stroke-linejoin="round"/>
<path id="Vector_2" d="M6 6.50006C6.82843 6.50006 7.5 5.82849 7.5 5.00006C7.5 4.17163 6.82843 3.50006 6 3.50006C5.17157 3.50006 4.5 4.17163 4.5 5.00006C4.5 5.82849 5.17157 6.50006 6 6.50006Z" stroke="var(--stroke-0, #999999)" stroke-linecap="round" stroke-linejoin="round"/>
</g>
</svg>
