<svg preserveAspectRatio="none" width="100%" height="100%" overflow="visible" style="display: block;" viewBox="0 0 18 18" fill="none" xmlns="http://www.w3.org/2000/svg">
<g id="lucide:map">
<path id="Vector" d="M11.2513 15.5738C11.0186 15.5738 10.789 15.5196 10.5808 15.4156L7.42185 13.8361C7.21365 13.732 6.9841 13.6779 6.75135 13.6779C6.5186 13.6779 6.28905 13.732 6.08085 13.8361L3.3366 15.2086C3.22211 15.2658 3.09489 15.2927 2.96704 15.2869C2.83919 15.281 2.71497 15.2426 2.60619 15.1751C2.49741 15.1077 2.40769 15.0136 2.34558 14.9017C2.28347 14.7897 2.25103 14.6638 2.25135 14.5358V4.96358C2.25142 4.82433 2.29026 4.68786 2.36351 4.56943C2.43677 4.45101 2.54154 4.35532 2.6661 4.29308L6.08085 2.58533C6.28905 2.48129 6.5186 2.42713 6.75135 2.42713C6.9841 2.42713 7.21365 2.48129 7.42185 2.58533L10.5808 4.16483C10.789 4.26887 11.0186 4.32303 11.2513 4.32303M11.2513 4.32303C11.4841 4.32303 11.7136 4.26887 11.9218 4.16483L14.6661 2.79233C14.7805 2.73515 14.9077 2.70819 15.0355 2.71401C15.1633 2.71983 15.2874 2.75823 15.3962 2.82558C15.505 2.89292 15.5947 2.98696 15.6568 3.09877C15.719 3.21057 15.7515 3.33641 15.7513 3.46433V13.0373C15.7513 13.1766 15.7124 13.3131 15.6392 13.4315C15.5659 13.5499 15.4612 13.6456 15.3366 13.7078L11.9218 15.4156C11.7136 15.5196 11.4841 15.5738 11.2513 15.5738M11.2513 4.32303V15.5738M6.75135 2.42713V13.6771" stroke="var(--stroke-0, black)" stroke-width="1.125" stroke-linecap="round" stroke-linejoin="round"/>
</g>
</svg>
