<svg preserveAspectRatio="none" width="100%" height="100%" overflow="visible" style="display: block;" viewBox="0 0 16 16" fill="none" xmlns="http://www.w3.org/2000/svg">
<g id="ShareNetwork">
<path id="Vector" d="M10.9976 10C10.6641 9.99994 10.3339 10.0668 10.0267 10.1966C9.71942 10.3264 9.44134 10.5165 9.20889 10.7557L6.32764 8.9038C6.55428 8.32261 6.55428 7.67749 6.32764 7.0963L9.20889 5.24442C9.64167 5.68775 10.2237 5.95458 10.842 5.99319C11.4603 6.0318 12.071 5.83944 12.5556 5.45339C13.0401 5.06735 13.3641 4.51513 13.4647 3.90379C13.5652 3.29246 13.4352 2.66557 13.0998 2.14466C12.7644 1.62375 12.2475 1.24593 11.6494 1.08445C11.0512 0.922981 10.4145 0.989355 9.86248 1.27071C9.3105 1.55206 8.88265 2.02835 8.66189 2.60723C8.44113 3.18611 8.44318 3.82634 8.66764 4.4038L5.78639 6.25567C5.43943 5.89947 4.99413 5.65483 4.50741 5.55301C4.0207 5.4512 3.51467 5.49685 3.05403 5.68411C2.59339 5.87138 2.19905 6.19176 1.92144 6.6043C1.64382 7.01684 1.49554 7.5028 1.49554 8.00005C1.49554 8.4973 1.64382 8.98326 1.92144 9.3958C2.19905 9.80834 2.59339 10.1287 3.05403 10.316C3.51467 10.5033 4.0207 10.5489 4.50741 10.4471C4.99413 10.3453 5.43943 10.1006 5.78639 9.74442L8.66764 11.5963C8.47462 12.0941 8.44606 12.6407 8.58614 13.1559C8.72621 13.6712 9.02757 14.128 9.44608 14.4596C9.86459 14.7912 10.3783 14.98 10.9119 14.9985C11.4455 15.0171 11.971 14.8642 12.4115 14.5625C12.852 14.2607 13.1843 13.8258 13.3597 13.3215C13.5352 12.8173 13.5446 12.27 13.3865 11.76C13.2285 11.25 12.9113 10.804 12.4814 10.4873C12.0516 10.1706 11.5316 9.99985 10.9976 10ZM10.9976 2.00005C11.2943 2.00005 11.5843 2.08802 11.831 2.25284C12.0777 2.41767 12.2699 2.65193 12.3835 2.92602C12.497 3.20011 12.5267 3.50171 12.4688 3.79268C12.4109 4.08366 12.2681 4.35093 12.0583 4.56071C11.8485 4.77049 11.5812 4.91335 11.2903 4.97123C10.9993 5.02911 10.6977 4.9994 10.4236 4.88587C10.1495 4.77234 9.91526 4.58008 9.75044 4.3334C9.58561 4.08673 9.49764 3.79672 9.49764 3.50005C9.49764 3.10222 9.65568 2.72069 9.93698 2.43939C10.2183 2.15808 10.5998 2.00005 10.9976 2.00005ZM3.99764 9.50005C3.70097 9.50005 3.41096 9.41208 3.16428 9.24725C2.91761 9.08243 2.72535 8.84816 2.61182 8.57408C2.49829 8.29999 2.46858 7.99839 2.52646 7.70741C2.58434 7.41644 2.7272 7.14917 2.93698 6.93939C3.14676 6.72961 3.41403 6.58675 3.705 6.52887C3.99598 6.47099 4.29758 6.5007 4.57166 6.61423C4.84575 6.72776 5.08002 6.92002 5.24484 7.16669C5.40967 7.41337 5.49764 7.70338 5.49764 8.00005C5.49764 8.39787 5.3396 8.77941 5.0583 9.06071C4.777 9.34201 4.39546 9.50005 3.99764 9.50005ZM10.9976 14.0001C10.701 14.0001 10.411 13.9121 10.1643 13.7473C9.91761 13.5824 9.72535 13.3482 9.61182 13.0741C9.49829 12.8 9.46858 12.4984 9.52646 12.2074C9.58434 11.9164 9.7272 11.6492 9.93698 11.4394C10.1468 11.2296 10.414 11.0867 10.705 11.0289C10.996 10.971 11.2976 11.0007 11.5717 11.1142C11.8458 11.2278 12.08 11.42 12.2448 11.6667C12.4097 11.9134 12.4976 12.2034 12.4976 12.5001C12.4976 12.8979 12.3396 13.2794 12.0583 13.5607C11.777 13.842 11.3955 14.0001 10.9976 14.0001Z" fill="var(--fill-0, #2C2828)"/>
</g>
</svg>
