<svg preserveAspectRatio="none" width="100%" height="100%" overflow="visible" style="display: block;" viewBox="0 0 14 14" fill="none" xmlns="http://www.w3.org/2000/svg">
<g id="Star">
<path id="Vector" d="M12.8138 6.28088L10.3529 8.40439L11.1027 11.5801C11.144 11.7525 11.1334 11.9333 11.0721 12.0996C11.0107 12.266 10.9015 12.4104 10.7581 12.5147C10.6147 12.619 10.4437 12.6784 10.2665 12.6855C10.0894 12.6926 9.91409 12.6471 9.76282 12.5546L7.00111 10.8549L4.23775 12.5546C4.0865 12.6466 3.91143 12.6917 3.73459 12.6843C3.55775 12.6769 3.38704 12.6174 3.24397 12.5132C3.10089 12.409 2.99184 12.2648 2.93055 12.0988C2.86926 11.9327 2.85847 11.7523 2.89954 11.5801L3.65204 8.40439L1.19111 6.28088C1.05728 6.16522 0.960502 6.0127 0.912846 5.84236C0.86519 5.67203 0.868772 5.49143 0.923145 5.32312C0.977518 5.15481 1.08027 5.00624 1.21857 4.89598C1.35688 4.78572 1.5246 4.71865 1.70079 4.70314L4.92736 4.44283L6.17204 1.43064C6.23941 1.26648 6.35408 1.12606 6.50146 1.02723C6.64885 0.928408 6.82229 0.875641 6.99974 0.875641C7.17719 0.875641 7.35063 0.928408 7.49801 1.02723C7.64539 1.12606 7.76006 1.26648 7.82743 1.43064L9.07157 4.44283L12.2981 4.70314C12.4747 4.71807 12.6429 4.78477 12.7817 4.89488C12.9205 5.00499 13.0237 5.15361 13.0784 5.32213C13.1332 5.49064 13.1369 5.67155 13.0893 5.8422C13.0416 6.01285 12.9447 6.16564 12.8106 6.28142L12.8138 6.28088Z" fill="var(--fill-0, #FFD700)"/>
</g>
</svg>
