<svg preserveAspectRatio="none" width="100%" height="100%" overflow="visible" style="display: block;" viewBox="0 0 14 14" fill="none" xmlns="http://www.w3.org/2000/svg">
<g id="Star">
<g id="Vector">
<path d="M12.8138 6.28088L10.3529 8.40439L11.1027 11.5801C11.144 11.7525 11.1334 11.9333 11.0721 12.0996C11.0107 12.266 10.9015 12.4104 10.7581 12.5147C10.6147 12.619 10.4437 12.6784 10.2665 12.6855C10.0894 12.6926 9.91409 12.6471 9.76282 12.5546L7.00111 10.8549L4.23775 12.5546C4.0865 12.6466 3.91143 12.6917 3.73459 12.6843C3.55775 12.6769 3.38704 12.6174 3.24397 12.5132C3.10089 12.409 2.99184 12.2648 2.93055 12.0988C2.86926 11.9327 2.85847 11.7523 2.89954 11.5801L3.65204 8.40439L1.19111 6.28088C1.05728 6.16522 0.960502 6.0127 0.912846 5.84236C0.86519 5.67203 0.868772 5.49143 0.923145 5.32312C0.977518 5.15481 1.08027 5.00624 1.21857 4.89598C1.35688 4.78572 1.5246 4.71865 1.70079 4.70314L4.92736 4.44283L6.17204 1.43064C6.23941 1.26648 6.35408 1.12606 6.50146 1.02723C6.64885 0.928408 6.82229 0.875641 6.99974 0.875641C7.17719 0.875641 7.35063 0.928408 7.49801 1.02723C7.64539 1.12606 7.76006 1.26648 7.82743 1.43064L9.07157 4.44283L12.2981 4.70314C12.4747 4.71807 12.6429 4.78477 12.7817 4.89488C12.9205 5.00499 13.0237 5.15361 13.0784 5.32213C13.1332 5.49064 13.1369 5.67155 13.0893 5.8422C13.0416 6.01285 12.9447 6.16564 12.8106 6.28142L12.8138 6.28088Z" fill="var(--fill-0, white)"/>
<path d="M6.99967 1.37564C7.07783 1.37564 7.15445 1.39859 7.2194 1.44205C7.28442 1.48564 7.33519 1.54834 7.36491 1.62076V1.62173L8.60905 4.63345L8.72624 4.91666L9.03092 4.94107L12.2555 5.20084V5.20181C12.334 5.20845 12.4096 5.23783 12.4714 5.28677C12.5328 5.33566 12.5789 5.40152 12.6032 5.47623C12.6275 5.55109 12.6292 5.63185 12.6081 5.70767C12.5869 5.78347 12.5436 5.85153 12.484 5.90298L11.1344 7.06802L11.1354 7.06705L10.026 8.02603L9.79655 8.22427L9.86589 8.5192L10.6159 11.695L10.6169 11.6969C10.6351 11.773 10.6302 11.853 10.6032 11.9264C10.5761 12 10.527 12.0639 10.4635 12.11C10.4002 12.156 10.325 12.183 10.2467 12.1862C10.1684 12.1893 10.09 12.1685 10.0231 12.1276L7.26335 10.4294L7.00163 10.2682L6.73893 10.4294L3.97819 12.1276C3.91131 12.1682 3.83374 12.1884 3.75553 12.1852C3.6774 12.182 3.60199 12.155 3.53874 12.109C3.47542 12.0629 3.42719 11.9989 3.40007 11.9254C3.37295 11.852 3.36725 11.7721 3.38542 11.696L3.38639 11.695L4.13835 8.5192L4.20866 8.22427L3.97917 8.02603L1.51725 5.90201C1.45815 5.85067 1.4153 5.78308 1.39421 5.70767C1.37305 5.63206 1.37501 5.55193 1.39909 5.4772C1.42324 5.40243 1.46852 5.33578 1.52995 5.28677C1.59021 5.23873 1.66328 5.20848 1.73991 5.20084L1.74089 5.20181L4.96745 4.94107L5.27214 4.91666L5.38932 4.63345L6.63444 1.62173V1.62076C6.66416 1.54834 6.71493 1.48564 6.77995 1.44205C6.8449 1.39856 6.92151 1.37565 6.99967 1.37564Z" stroke="var(--stroke-0, black)" stroke-opacity="0.52"/>
</g>
</g>
</svg>
