<svg width="24" height="24" viewBox="0 0 24 24" fill="none" xmlns="http://www.w3.org/2000/svg">
<path d="M21.75 18.7504C21.75 18.9493 21.671 19.1401 21.5303 19.2807C21.3897 19.4214 21.1989 19.5004 21 19.5004C20.8011 19.5004 20.6103 19.4214 20.4696 19.2807C20.329 19.1401 20.25 18.9493 20.25 18.7504C20.2475 16.5631 19.3775 14.4662 17.8309 12.9195C16.2842 11.3729 14.1873 10.5029 12 10.5004H4.81029L8.03061 13.7198C8.17134 13.8605 8.2504 14.0514 8.2504 14.2504C8.2504 14.4494 8.17134 14.6403 8.03061 14.781C7.88987 14.9218 7.699 15.0008 7.49998 15.0008C7.30096 15.0008 7.11009 14.9218 6.96935 14.781L2.46935 10.281C2.39962 10.2114 2.3443 10.1287 2.30656 10.0376C2.26882 9.94657 2.24939 9.84898 2.24939 9.75042C2.24939 9.65186 2.26882 9.55426 2.30656 9.46321C2.3443 9.37216 2.39962 9.28945 2.46935 9.21979L6.96935 4.71979C7.11009 4.57906 7.30096 4.5 7.49998 4.5C7.699 4.5 7.88987 4.57906 8.03061 4.71979C8.17134 4.86052 8.2504 5.05139 8.2504 5.25042C8.2504 5.44944 8.17134 5.64031 8.03061 5.78104L4.81029 9.00042H12C14.585 9.00315 17.0634 10.0313 18.8913 11.8591C20.7191 13.687 21.7472 16.1654 21.75 18.7504Z" fill="#2C2828"/>
</svg>
