<svg width="23" height="23" viewBox="0 0 23 23" fill="none" xmlns="http://www.w3.org/2000/svg">
<path fill-rule="evenodd" clip-rule="evenodd" d="M7.19938 2.86133H20.2118C21.6995 2.86133 22.8932 4.03572 22.8932 5.47196V17.4206C22.8932 18.8568 21.6995 20.0312 20.2118 20.0312H7.19938C6.29519 20.0312 5.52493 19.5886 5.02096 18.8586L0 11.442L5.02561 4.01867C5.52348 3.29754 6.29489 2.86133 7.19938 2.86133ZM21.0015 5.47176C21.0015 5.02182 20.6423 4.66849 20.2128 4.66849H7.2004C6.96321 4.66849 6.7691 4.77825 6.61149 5.00647L2.25481 11.4418L1.92267 10.9512V11.9324L2.25481 11.4418L6.60685 17.8703C6.77281 18.1107 6.96931 18.2236 7.2004 18.2236H20.2128C20.6423 18.2236 21.0015 17.8703 21.0015 17.4204V5.47176Z" fill="#49454F"/>
<path fill-rule="evenodd" clip-rule="evenodd" d="M17.6912 14.3201L16.4396 15.5136L13.2685 12.4899L10.0974 15.5136L8.84578 14.3201L12.0169 11.2964L8.84578 8.27274L10.0974 7.07928L13.2685 10.103L16.4396 7.07928L17.6912 8.27274L14.5201 11.2964L17.6912 14.3201Z" fill="#49454F"/>
</svg>
