<svg width="15" height="15" viewBox="0 0 15 15" fill="none" xmlns="http://www.w3.org/2000/svg">
<path d="M12.5191 7.63737C12.5627 7.6809 12.5973 7.7326 12.6209 7.78951C12.6445 7.84641 12.6566 7.90741 12.6566 7.96901C12.6566 8.03061 12.6445 8.09161 12.6209 8.14851C12.5973 8.20542 12.5627 8.25712 12.5191 8.30065L7.83163 12.9882C7.78809 13.0317 7.73639 13.0663 7.67949 13.0899C7.62258 13.1135 7.56159 13.1256 7.49999 13.1256C7.43839 13.1256 7.37739 13.1135 7.32048 13.0899C7.26358 13.0663 7.21188 13.0317 7.16834 12.9882L2.48085 8.30065C2.39289 8.2127 2.34348 8.0934 2.34348 7.96901C2.34348 7.84462 2.39289 7.72533 2.48085 7.63737C2.5688 7.54941 2.6881 7.5 2.81249 7.5C2.93688 7.5 3.05617 7.54941 3.14413 7.63737L7.49999 11.9938L11.8558 7.63737C11.8994 7.59379 11.9511 7.55921 12.008 7.53562C12.0649 7.51203 12.1259 7.49989 12.1875 7.49989C12.2491 7.49989 12.3101 7.51203 12.367 7.53562C12.4239 7.55921 12.4756 7.59379 12.5191 7.63737ZM7.16834 8.30065C7.21188 8.34423 7.26358 8.37881 7.32048 8.4024C7.37739 8.42599 7.43839 8.43813 7.49999 8.43813C7.56159 8.43813 7.62258 8.42599 7.67949 8.4024C7.73639 8.37881 7.78809 8.34423 7.83163 8.30065L12.5191 3.61315C12.6071 3.52519 12.6565 3.4059 12.6565 3.28151C12.6565 3.15712 12.6071 3.03783 12.5191 2.94987C12.4312 2.86191 12.3119 2.8125 12.1875 2.8125C12.0631 2.8125 11.9438 2.86191 11.8558 2.94987L7.49999 7.30632L3.14413 2.94987C3.05617 2.86191 2.93688 2.8125 2.81249 2.8125C2.6881 2.8125 2.5688 2.86191 2.48085 2.94987C2.39289 3.03783 2.34348 3.15712 2.34348 3.28151C2.34348 3.4059 2.39289 3.52519 2.48085 3.61315L7.16834 8.30065Z" fill="#323798"/>
</svg>
