<svg width="19" height="19" viewBox="0 0 19 19" fill="none" xmlns="http://www.w3.org/2000/svg">
<path d="M13.4826 9.92041L7.5451 15.8579C7.48994 15.9131 7.42445 15.9568 7.35237 15.9867C7.28029 16.0165 7.20304 16.0319 7.12502 16.0319C7.04701 16.0319 6.96976 16.0165 6.89768 15.9867C6.8256 15.9568 6.76011 15.9131 6.70495 15.8579C6.64978 15.8027 6.60602 15.7373 6.57617 15.6652C6.54631 15.5931 6.53094 15.5158 6.53094 15.4378C6.53094 15.3598 6.54631 15.2826 6.57617 15.2105C6.60602 15.1384 6.64978 15.0729 6.70495 15.0178L12.2231 9.50033L6.70495 3.98291C6.59353 3.8715 6.53094 3.72039 6.53094 3.56283C6.53094 3.40527 6.59353 3.25416 6.70495 3.14275C6.81636 3.03134 6.96747 2.96875 7.12502 2.96875C7.28258 2.96875 7.43369 3.03134 7.5451 3.14275L13.4826 9.08025C13.5378 9.1354 13.5816 9.20088 13.6115 9.27296C13.6414 9.34504 13.6567 9.4223 13.6567 9.50033C13.6567 9.57836 13.6414 9.65562 13.6115 9.7277C13.5816 9.79978 13.5378 9.86526 13.4826 9.92041Z" fill="#343330"/>
</svg>
