<svg width="12" height="12" viewBox="0 0 12 12" fill="none" xmlns="http://www.w3.org/2000/svg">
<path d="M10.1221 10.125H9.37207V5.40516L9.90223 4.875C9.97217 4.80561 10.0276 4.723 10.0654 4.63199C10.1031 4.54098 10.1224 4.44337 10.1221 4.34484V2.25C10.1221 2.05109 10.0431 1.86032 9.9024 1.71967C9.76175 1.57902 9.57098 1.5 9.37207 1.5H8.24707C8.14761 1.5 8.05223 1.53951 7.9819 1.60984C7.91158 1.68016 7.87207 1.77554 7.87207 1.875V3H7.12207V1.875C7.12207 1.77554 7.08256 1.68016 7.01224 1.60984C6.94191 1.53951 6.84653 1.5 6.74707 1.5H5.24707C5.14761 1.5 5.05223 1.53951 4.9819 1.60984C4.91158 1.68016 4.87207 1.77554 4.87207 1.875V3H4.12207V1.875C4.12207 1.77554 4.08256 1.68016 4.01224 1.60984C3.94191 1.53951 3.84653 1.5 3.74707 1.5H2.62207C2.42316 1.5 2.23239 1.57902 2.09174 1.71967C1.95109 1.86032 1.87207 2.05109 1.87207 2.25V4.34484C1.87176 4.44337 1.89103 4.54098 1.92877 4.63199C1.96651 4.723 2.02197 4.80561 2.09191 4.875L2.62207 5.40516V10.125H1.87207C1.77261 10.125 1.67723 10.1645 1.60691 10.2348C1.53658 10.3052 1.49707 10.4005 1.49707 10.5C1.49707 10.5995 1.53658 10.6948 1.60691 10.7652C1.67723 10.8355 1.77261 10.875 1.87207 10.875H10.1221C10.2215 10.875 10.3169 10.8355 10.3872 10.7652C10.4576 10.6948 10.4971 10.5995 10.4971 10.5C10.4971 10.4005 10.4576 10.3052 10.3872 10.2348C10.3169 10.1645 10.2215 10.125 10.1221 10.125ZM3.26238 4.98469L2.62207 4.34484V2.25H3.37207V3.375C3.37207 3.47446 3.41158 3.56984 3.48191 3.64016C3.55223 3.71049 3.64761 3.75 3.74707 3.75H5.24707C5.34653 3.75 5.44191 3.71049 5.51224 3.64016C5.58256 3.56984 5.62207 3.47446 5.62207 3.375V2.25H6.37207V3.375C6.37207 3.47446 6.41158 3.56984 6.4819 3.64016C6.55223 3.71049 6.64761 3.75 6.74707 3.75H8.24707C8.34653 3.75 8.44191 3.71049 8.51224 3.64016C8.58256 3.56984 8.62207 3.47446 8.62207 3.375V2.25H9.37207V4.34484L8.73176 4.98469C8.69694 5.01954 8.66934 5.06091 8.65052 5.10643C8.6317 5.15195 8.62203 5.20074 8.62207 5.25V10.125H7.49707V7.875C7.49707 7.47717 7.33903 7.09564 7.05773 6.81434C6.77643 6.53304 6.39489 6.375 5.99707 6.375C5.59925 6.375 5.21771 6.53304 4.93641 6.81434C4.65511 7.09564 4.49707 7.47717 4.49707 7.875V10.125H3.37207V5.25C3.37211 5.20074 3.36244 5.15195 3.34362 5.10643C3.3248 5.06091 3.2972 5.01954 3.26238 4.98469ZM6.74707 10.125H5.24707V7.875C5.24707 7.67609 5.32609 7.48532 5.46674 7.34467C5.60739 7.20402 5.79816 7.125 5.99707 7.125C6.19598 7.125 6.38675 7.20402 6.5274 7.34467C6.66805 7.48532 6.74707 7.67609 6.74707 7.875V10.125Z" fill="#999999"/>
</svg>
