<svg width="13" height="13" viewBox="0 0 13 13" fill="none" xmlns="http://www.w3.org/2000/svg">
<path d="M6.25 0C4.59296 0.00181975 3.0043 0.660884 1.83259 1.83259C0.660884 3.0043 0.00181975 4.59296 0 6.25V11.5C0 11.7652 0.105357 12.0196 0.292893 12.2071C0.48043 12.3946 0.734784 12.5 1 12.5H6.25C7.9076 12.5 9.49732 11.8415 10.6694 10.6694C11.8415 9.49732 12.5 7.9076 12.5 6.25C12.5 4.5924 11.8415 3.00269 10.6694 1.83058C9.49732 0.65848 7.9076 0 6.25 0ZM6.25 11.5H1V6.25C1 5.21165 1.30791 4.19661 1.88478 3.33326C2.46166 2.4699 3.2816 1.79699 4.24091 1.39963C5.20022 1.00227 6.25582 0.898305 7.27422 1.10088C8.29262 1.30345 9.22809 1.80346 9.96231 2.53769C10.6965 3.27191 11.1966 4.20738 11.3991 5.22578C11.6017 6.24418 11.4977 7.29978 11.1004 8.25909C10.703 9.2184 10.0301 10.0383 9.16674 10.6152C8.30338 11.1921 7.28835 11.5 6.25 11.5Z" fill="white"/>
</svg>