<svg width="12" height="12" viewBox="0 0 12 12" fill="none" xmlns="http://www.w3.org/2000/svg">
<path fill-rule="evenodd" clip-rule="evenodd" d="M5.72351 1.14485C3.19895 1.14485 1.14485 3.19894 1.14485 5.72348C1.14485 8.24803 3.19895 10.3021 5.72351 10.3021C8.24807 10.3021 10.3022 8.24803 10.3022 5.72348C10.3022 3.19894 8.24807 1.14485 5.72351 1.14485ZM5.7233 11.4466C2.56747 11.4466 0 8.87913 0 5.7233C0 2.56747 2.56747 0 5.7233 0C8.87913 0 11.4466 2.56747 11.4466 5.7233C11.4466 8.87913 8.87913 11.4466 5.7233 11.4466Z" fill="#49454F"/>
<path d="M7.34204 7.22949C7.52544 7.02149 7.84217 7.00349 8.04907 7.18652C8.25597 7.36995 8.27616 7.68637 8.09302 7.89355C7.49064 8.57454 6.6232 8.96484 5.71411 8.96484C4.80521 8.96476 3.93848 8.57436 3.33618 7.89355C3.1531 7.68645 3.17246 7.36998 3.37915 7.18652C3.58625 7.00346 3.90271 7.02227 4.08618 7.22949C4.49819 7.695 5.09181 7.9628 5.71411 7.96289C6.3365 7.96289 6.92996 7.69505 7.34204 7.22949ZM3.71118 4.00684C4.18537 4.00684 4.5704 4.39108 4.57056 4.86523C4.57056 5.33952 4.18547 5.72461 3.71118 5.72461C3.23703 5.72445 2.85278 5.33942 2.85278 4.86523C2.85294 4.39119 3.23713 4.007 3.71118 4.00684ZM7.71802 4.00684C8.19218 4.00686 8.57625 4.3911 8.57642 4.86523C8.57642 5.33951 8.19228 5.72459 7.71802 5.72461C7.24373 5.72461 6.85962 5.33952 6.85962 4.86523C6.85978 4.39108 7.24383 4.00684 7.71802 4.00684Z" fill="#49454F"/>
</svg>
