<svg width="41" height="41" viewBox="0 0 41 41" fill="none" xmlns="http://www.w3.org/2000/svg">
<path d="M19.8576 12.3376C18.3611 12.3376 16.0447 10.6361 13.6051 10.6976C10.3866 10.7386 7.43465 12.5631 5.77415 15.4536C2.43265 21.2551 4.91315 29.8242 8.17265 34.5392C9.77165 36.8352 11.6576 39.4181 14.1586 39.3362C16.5571 39.2337 17.4591 37.7781 20.3701 37.7781C23.2606 37.7781 24.0806 39.3361 26.6226 39.2747C29.2056 39.2337 30.8456 36.9376 32.4241 34.6211C34.2486 31.9562 35.0071 29.3731 35.0481 29.2296C34.9866 29.2091 30.0256 27.3026 29.9641 21.5626C29.9231 16.7656 33.8796 14.4696 34.0641 14.3671C31.8091 11.0666 28.3446 10.6976 27.1351 10.6156C23.9781 10.3696 21.3337 12.3376 19.8576 12.3376ZM25.1876 7.49965C26.5201 5.90065 27.4016 3.66615 27.1556 1.45215C25.2491 1.53415 22.9532 2.72315 21.5797 4.32215C20.3497 5.73665 19.2836 8.01215 19.5707 10.1851C21.6821 10.3491 23.8552 9.09865 25.1876 7.49965Z" fill="black"/>
</svg>
