<svg width="34" height="34" viewBox="0 0 34 34" fill="none" xmlns="http://www.w3.org/2000/svg">
<rect width="34" height="34" rx="11" fill="#222222"/>
<path d="M26.8377 25.508L18.535 6.99195L18.5267 6.97582C18.3875 6.68352 18.1709 6.43709 17.9017 6.26458C17.6324 6.09207 17.3213 6.0004 17.0036 6C16.686 5.9996 16.3747 6.09049 16.105 6.26232C15.8353 6.43415 15.6181 6.68003 15.4782 6.97198C15.475 6.97711 15.4723 6.98251 15.47 6.98811L7.17099 25.508C7.01614 25.8312 6.96468 26.1961 7.02392 26.5509C7.08315 26.9057 7.25007 27.2324 7.50097 27.4846L7.52347 27.5076C7.77889 27.7652 8.10839 27.9319 8.46337 27.9832C8.81835 28.0345 9.18003 27.9676 9.49509 27.7925L9.51459 27.7817L17.0021 23.4693L24.4896 27.7817L24.5091 27.7925C24.8246 27.9635 25.1847 28.0283 25.5383 27.9776C25.8918 27.927 26.2207 27.7634 26.4782 27.5103C26.7358 27.2572 26.9088 26.9273 26.9726 26.5677C27.0365 26.2081 26.988 25.837 26.834 25.5073L26.8377 25.508ZM17.4198 21.7147C17.2929 21.6417 17.1499 21.6034 17.0043 21.6034C16.8588 21.6034 16.7158 21.6417 16.5889 21.7147L8.70239 26.2575L8.71064 26.2398L17.0043 7.72835L25.2988 26.2375L25.3063 26.2544L17.4198 21.7147Z" fill="white"/>
</svg>
