<svg width="23" height="23" viewBox="0 0 23 23" fill="none" xmlns="http://www.w3.org/2000/svg">
<path d="M11.4466 20.9859L10.4927 18.1242H3.81548C3.29085 18.1242 2.84173 17.9374 2.46812 17.5638C2.09452 17.1902 1.90771 16.7411 1.90771 16.2165V3.81597C1.90771 3.29133 2.09452 2.84221 2.46812 2.46861C2.84173 2.09501 3.29085 1.9082 3.81548 1.9082H9.53878L10.3734 4.76985H19.0776C19.6341 4.76985 20.0911 4.94871 20.4488 5.30641C20.8065 5.66412 20.9854 6.12119 20.9854 6.67762V19.0781C20.9854 19.6027 20.8065 20.0519 20.4488 20.4255C20.0911 20.7991 19.6341 20.9859 19.0776 20.9859H11.4466ZM6.82022 13.9271C7.91718 13.9271 8.8194 13.5734 9.52686 12.8659C10.2343 12.1585 10.5881 11.2404 10.5881 10.1116C10.5881 9.98442 10.5841 9.86916 10.5761 9.76582C10.5682 9.66248 10.5483 9.55517 10.5165 9.44388H6.74867V10.9224H8.87106C8.74388 11.3675 8.50143 11.7133 8.14373 11.9598C7.78602 12.2062 7.3528 12.3294 6.84406 12.3294C6.22404 12.3294 5.69145 12.1068 5.24631 11.6617C4.80116 11.2165 4.57859 10.668 4.57859 10.0162C4.57859 9.36439 4.80116 8.81591 5.24631 8.37076C5.69145 7.92562 6.22404 7.70305 6.84406 7.70305C7.13023 7.70305 7.40049 7.75471 7.65486 7.85805C7.90923 7.96139 8.13975 8.11639 8.34643 8.32307L9.51494 7.20226C9.18108 6.8525 8.77965 6.58223 8.31066 6.39146C7.84167 6.20068 7.34485 6.10529 6.82022 6.10529C5.75505 6.10529 4.84488 6.48287 4.08972 7.23803C3.33457 7.99319 2.95699 8.91925 2.95699 10.0162C2.95699 11.1132 3.33457 12.0392 4.08972 12.7944C4.84488 13.5496 5.75505 13.9271 6.82022 13.9271ZM13.2112 14.4041L13.7359 13.9033C13.5133 13.633 13.3106 13.3707 13.1278 13.1163C12.9449 12.862 12.7661 12.5917 12.5912 12.3055L13.2112 14.4041ZM14.4036 13.1879C14.8487 12.6632 15.1866 12.1625 15.4171 11.6855C15.6476 11.2086 15.8026 10.835 15.8821 10.5647H12.0904L12.3766 11.5663H13.3305C13.4577 11.8047 13.6087 12.0631 13.7836 12.3413C13.9584 12.6195 14.1651 12.9017 14.4036 13.1879ZM12.4004 20.032H19.0776C19.3638 20.032 19.5943 19.9406 19.7692 19.7577C19.9441 19.5749 20.0315 19.3484 20.0315 19.0781V6.67762C20.0315 6.39146 19.9441 6.16093 19.7692 5.98606C19.5943 5.81118 19.3638 5.72374 19.0776 5.72374H10.6596L11.7804 9.58697H13.6643V8.58539H14.6421V9.58697H18.1237V10.5647H16.9075C16.7486 11.1688 16.5101 11.7571 16.1921 12.3294C15.8742 12.9017 15.5006 13.4343 15.0713 13.9271L17.6706 16.4788L16.9791 17.1703L14.4036 14.5949L13.5451 15.4772L14.3082 18.1242L12.4004 20.032Z" fill="#1D1B20"/>
</svg>
