<svg width="56" height="56" viewBox="0 0 56 56" fill="none" xmlns="http://www.w3.org/2000/svg">
<path d="M28 56C43.464 56 56 43.464 56 28C56 12.536 43.464 0 28 0C12.536 0 0 12.536 0 28C0 43.464 12.536 56 28 56Z" fill="#461C3A"/>
<path d="M23.7056 41.6679C23.1683 41.6679 22.6944 41.364 22.4688 40.8747C19.9304 35.3708 16.0818 31.6471 14.9627 30.6369C14.555 30.2688 14.3754 29.7068 14.494 29.1702C14.6207 28.5968 15.0722 27.6349 16.6726 27.6349C18.7594 27.6349 21.9151 29.3042 23.0352 29.9363C30.4057 21.1601 34.8194 17.7384 37.233 16.4146C37.5236 16.2552 37.8521 16.1709 38.183 16.1709C38.756 16.1709 39.3 16.4189 39.6755 16.8512L39.6911 16.8693C40.4005 17.69 40.3179 18.9356 39.509 19.6484C29.6695 28.3201 26.2098 36.5458 25.0232 40.6772C24.8529 41.2698 24.3233 41.6679 23.7056 41.6679Z" fill="white"/>
</svg>
