<svg width="17" height="23" viewBox="0 0 17 23" fill="none" xmlns="http://www.w3.org/2000/svg">
<path d="M8.05035 14.4627C10.5361 14.4627 12.5699 12.4289 12.5699 9.94309V4.51959C12.5699 2.03381 10.5361 0 8.05035 0C5.56457 0 3.53076 2.03381 3.53076 4.51959V9.94309C3.53076 12.4289 5.56457 14.4627 8.05035 14.4627Z" fill="#717171"/>
<path d="M16.0893 11.196C16.1656 10.7017 15.8295 10.2412 15.3351 10.165C14.8408 10.0915 14.3804 10.4277 14.3041 10.9192C13.8295 13.9699 11.1432 16.2692 8.05012 16.2692C4.95703 16.2692 2.26788 13.9671 1.79615 10.9164C1.71988 10.422 1.25662 10.0859 0.765117 10.1622C0.270787 10.2384 -0.0653576 10.6989 0.0109104 11.1932C0.581508 14.8795 3.51359 17.6279 7.14621 18.0234V20.7888H4.43445C3.93448 20.7888 3.53054 21.1928 3.53054 21.6927C3.53054 22.1927 3.93448 22.5967 4.43445 22.5967H11.6658C12.1658 22.5967 12.5697 22.1927 12.5697 21.6927C12.5697 21.1928 12.1658 20.7888 11.6658 20.7888H8.95404V18.0234C12.5838 17.6279 15.5187 14.8823 16.0893 11.196Z" fill="#717171"/>
</svg>
