<svg width="25" height="24" viewBox="0 0 25 24" fill="none" xmlns="http://www.w3.org/2000/svg">
<path d="M0 12C0 5.37258 5.4378 0 12.0652 0C18.6926 0 24.1304 5.37258 24.1304 12C24.1304 18.6274 18.6926 24 12.0652 24C5.4378 24 0 18.6274 0 12Z" fill="#E8E3E7"/>
<path d="M17.5278 18.5L13.1528 14.125C12.8056 14.4028 12.4062 14.6227 11.9549 14.7847C11.5035 14.9468 11.0231 15.0278 10.5139 15.0278C9.25231 15.0278 8.18461 14.5909 7.31076 13.717C6.43692 12.8432 6 11.7755 6 10.5139C6 9.25231 6.43692 8.18461 7.31076 7.31076C8.18461 6.43692 9.25231 6 10.5139 6C11.7755 6 12.8432 6.43692 13.717 7.31076C14.5909 8.18461 15.0278 9.25231 15.0278 10.5139C15.0278 11.0231 14.9468 11.5035 14.7847 11.9549C14.6227 12.4062 14.4028 12.8056 14.125 13.1528L18.5 17.5278L17.5278 18.5ZM10.5139 13.6389C11.3819 13.6389 12.1198 13.3351 12.7274 12.7274C13.3351 12.1198 13.6389 11.3819 13.6389 10.5139C13.6389 9.64583 13.3351 8.90799 12.7274 8.30035C12.1198 7.69271 11.3819 7.38889 10.5139 7.38889C9.64583 7.38889 8.90799 7.69271 8.30035 8.30035C7.69271 8.90799 7.38889 9.64583 7.38889 10.5139C7.38889 11.3819 7.69271 12.1198 8.30035 12.7274C8.90799 13.3351 9.64583 13.6389 10.5139 13.6389Z" fill="#461C3A"/>
</svg>
