<svg width="23" height="23" viewBox="0 0 23 23" fill="none" xmlns="http://www.w3.org/2000/svg">
<g clip-path="url(#paint0_angular_233_1074_clip_path)" data-figma-skip-parse="true"><g transform="matrix(-0.00313636 -0.00501818 0.00501818 -0.00313636 16.0996 13.8)"><foreignObject x="-3711.57" y="-3711.57" width="7423.15" height="7423.15"><div xmlns="http://www.w3.org/1999/xhtml" style="background:conic-gradient(from 90deg,rgba(180, 80, 255, 0.6) 0deg,rgba(203, 227, 255, 1) 53.6538deg,rgba(223, 218, 235, 1) 159.231deg,rgba(255, 205, 233, 1) 205.962deg,rgba(255, 182, 239, 1) 290.769deg,rgba(180, 80, 255, 0.6) 360deg);height:100%;width:100%;opacity:1"></div></foreignObject></g></g><path d="M18.8182 8.36364L17.5114 5.48864L14.6364 4.18182L17.5114 2.875L18.8182 0L20.125 2.875L23 4.18182L20.125 5.48864L18.8182 8.36364ZM18.8182 23L17.5114 20.125L14.6364 18.8182L17.5114 17.5114L18.8182 14.6364L20.125 17.5114L23 18.8182L20.125 20.125L18.8182 23ZM8.36364 19.8636L5.75 14.1136L0 11.5L5.75 8.88636L8.36364 3.13636L10.9773 8.88636L16.7273 11.5L10.9773 14.1136L8.36364 19.8636Z" data-figma-gradient-fill="{&#34;type&#34;:&#34;GRADIENT_ANGULAR&#34;,&#34;stops&#34;:[{&#34;color&#34;:{&#34;r&#34;:0.79999983310699463,&#34;g&#34;:0.89333325624465942,&#34;b&#34;:1.0,&#34;a&#34;:1.0},&#34;position&#34;:0.14903846383094788},{&#34;color&#34;:{&#34;r&#34;:0.87669044733047485,&#34;g&#34;:0.85606950521469116,&#34;b&#34;:0.92183458805084229,&#34;a&#34;:1.0},&#34;position&#34;:0.44230768084526062},{&#34;color&#34;:{&#34;r&#34;:1.0,&#34;g&#34;:0.80576908588409424,&#34;b&#34;:0.91729331016540527,&#34;a&#34;:1.0},&#34;position&#34;:0.57211536169052124},{&#34;color&#34;:{&#34;r&#34;:1.0,&#34;g&#34;:0.71538454294204712,&#34;b&#34;:0.93833339214324951,&#34;a&#34;:1.0},&#34;position&#34;:0.80769228935241699},{&#34;color&#34;:{&#34;r&#34;:0.70588237047195435,&#34;g&#34;:0.31372550129890442,&#34;b&#34;:1.0,&#34;a&#34;:0.60000002384185791},&#34;position&#34;:1.0}],&#34;stopsVar&#34;:[{&#34;color&#34;:{&#34;r&#34;:0.79999983310699463,&#34;g&#34;:0.89333325624465942,&#34;b&#34;:1.0,&#34;a&#34;:1.0},&#34;position&#34;:0.14903846383094788},{&#34;color&#34;:{&#34;r&#34;:0.87669044733047485,&#34;g&#34;:0.85606950521469116,&#34;b&#34;:0.92183458805084229,&#34;a&#34;:1.0},&#34;position&#34;:0.44230768084526062},{&#34;color&#34;:{&#34;r&#34;:1.0,&#34;g&#34;:0.80576908588409424,&#34;b&#34;:0.91729331016540527,&#34;a&#34;:1.0},&#34;position&#34;:0.57211536169052124},{&#34;color&#34;:{&#34;r&#34;:1.0,&#34;g&#34;:0.71538454294204712,&#34;b&#34;:0.93833339214324951,&#34;a&#34;:1.0},&#34;position&#34;:0.80769228935241699},{&#34;color&#34;:{&#34;r&#34;:0.70588237047195435,&#34;g&#34;:0.31372550129890442,&#34;b&#34;:1.0,&#34;a&#34;:0.60000002384185791},&#34;position&#34;:1.0}],&#34;transform&#34;:{&#34;m00&#34;:-6.2727284431457520,&#34;m01&#34;:10.036365509033203,&#34;m02&#34;:14.217774391174316,&#34;m10&#34;:-10.036365509033203,&#34;m11&#34;:-6.2727284431457520,&#34;m12&#34;:21.954547882080078},&#34;opacity&#34;:1.0,&#34;blendMode&#34;:&#34;NORMAL&#34;,&#34;visible&#34;:true}"/>
<defs>
<clipPath id="paint0_angular_233_1074_clip_path"><path d="M18.8182 8.36364L17.5114 5.48864L14.6364 4.18182L17.5114 2.875L18.8182 0L20.125 2.875L23 4.18182L20.125 5.48864L18.8182 8.36364ZM18.8182 23L17.5114 20.125L14.6364 18.8182L17.5114 17.5114L18.8182 14.6364L20.125 17.5114L23 18.8182L20.125 20.125L18.8182 23ZM8.36364 19.8636L5.75 14.1136L0 11.5L5.75 8.88636L8.36364 3.13636L10.9773 8.88636L16.7273 11.5L10.9773 14.1136L8.36364 19.8636Z"/></clipPath></defs>
</svg>
