<svg width="15" height="15" viewBox="0 0 15 15" fill="none" xmlns="http://www.w3.org/2000/svg">
<path d="M7.2 7.2C6.21 7.2 5.3625 6.8475 4.6575 6.1425C3.9525 5.4375 3.6 4.59 3.6 3.6C3.6 2.61 3.9525 1.7625 4.6575 1.0575C5.3625 0.3525 6.21 0 7.2 0C8.19 0 9.0375 0.3525 9.7425 1.0575C10.4475 1.7625 10.8 2.61 10.8 3.6C10.8 4.59 10.4475 5.4375 9.7425 6.1425C9.0375 6.8475 8.19 7.2 7.2 7.2ZM0 14.4V11.88C0 11.37 0.13125 10.9012 0.39375 10.4737C0.65625 10.0462 1.005 9.72 1.44 9.495C2.37 9.03 3.315 8.68125 4.275 8.44875C5.235 8.21625 6.21 8.1 7.2 8.1C8.19 8.1 9.165 8.21625 10.125 8.44875C11.085 8.68125 12.03 9.03 12.96 9.495C13.395 9.72 13.7437 10.0462 14.0062 10.4737C14.2687 10.9012 14.4 11.37 14.4 11.88V14.4H0ZM0.699951 13.0803H13.9007V12.2002C13.9007 11.9985 13.8503 11.8152 13.7495 11.6502C13.6486 11.4852 13.5157 11.3568 13.3507 11.2651C12.3606 10.7701 11.3614 10.3988 10.353 10.1513C9.34463 9.90382 8.32707 9.78006 7.30034 9.78006C6.27361 9.78006 5.25605 9.90382 4.24766 10.1513C3.23927 10.3988 2.24004 10.7701 1.24998 11.2651C1.08497 11.3568 0.95205 11.4852 0.85121 11.6502C0.750371 11.8152 0.699951 11.9985 0.699951 12.2002V13.0803ZM7.2 6.10039C7.85646 6.10039 8.41843 5.86049 8.88591 5.38067C9.35339 4.90086 9.58712 4.32407 9.58712 3.65029C9.58712 2.97652 9.35339 2.39972 8.88591 1.91991C8.41843 1.4401 7.85646 1.2002 7.2 1.2002C6.54354 1.2002 5.98157 1.4401 5.51409 1.91991C5.04661 2.39972 4.81288 2.97652 4.81288 3.65029C4.81288 4.32407 5.04661 4.90086 5.51409 5.38067C5.98157 5.86049 6.54354 6.10039 7.2 6.10039Z" fill="black"/>
</svg>
