<svg width="23" height="23" viewBox="0 0 23 23" fill="none" xmlns="http://www.w3.org/2000/svg">
<path d="M11.4466 20.9859C10.1429 20.9859 8.91081 20.7355 7.75025 20.2347C6.58969 19.7339 5.57619 19.0503 4.70975 18.1838C3.8433 17.3174 3.15969 16.3039 2.6589 15.1433C2.15811 13.9828 1.90771 12.7507 1.90771 11.447C1.90771 10.1275 2.15811 8.89143 2.6589 7.73882C3.15969 6.58621 3.8433 5.57668 4.70975 4.71024C5.57619 3.84379 6.58969 3.16018 7.75025 2.65939C8.91081 2.1586 10.1429 1.9082 11.4466 1.9082C12.7661 1.9082 14.0022 2.1586 15.1548 2.65939C16.3074 3.16018 17.3169 3.84379 18.1834 4.71024C19.0498 5.57668 19.7334 6.58621 20.2342 7.73882C20.735 8.89143 20.9854 10.1275 20.9854 11.447C20.9854 12.7507 20.735 13.9828 20.2342 15.1433C19.7334 16.3039 19.0498 17.3174 18.1834 18.1838C17.3169 19.0503 16.3074 19.7339 15.1548 20.2347C14.0022 20.7355 12.7661 20.9859 11.4466 20.9859ZM11.4466 19.0304C11.8599 18.4581 12.2176 17.8619 12.5197 17.2419C12.8217 16.6219 13.0682 15.9621 13.2589 15.2626H9.63417C9.82495 15.9621 10.0714 16.6219 10.3734 17.2419C10.6755 17.8619 11.0332 18.4581 11.4466 19.0304ZM8.96645 18.6489C8.68029 18.1242 8.42989 17.5797 8.21527 17.0153C8.00065 16.451 7.82179 15.8667 7.67871 15.2626H4.86475C5.3258 16.0575 5.9021 16.749 6.59367 17.3373C7.28523 17.9255 8.07616 18.3627 8.96645 18.6489ZM13.9266 18.6489C14.8169 18.3627 15.6079 17.9255 16.2994 17.3373C16.991 16.749 17.5673 16.0575 18.0283 15.2626H15.2144C15.0713 15.8667 14.8925 16.451 14.6778 17.0153C14.4632 17.5797 14.2128 18.1242 13.9266 18.6489ZM4.05395 13.3548H7.29716C7.24946 13.0368 7.21369 12.7229 7.18984 12.4128C7.166 12.1028 7.15407 11.7809 7.15407 11.447C7.15407 11.1132 7.166 10.7912 7.18984 10.4812C7.21369 10.1712 7.24946 9.85723 7.29716 9.53927H4.05395C3.97446 9.85723 3.91484 10.1712 3.8751 10.4812C3.83535 10.7912 3.81548 11.1132 3.81548 11.447C3.81548 11.7809 3.83535 12.1028 3.8751 12.4128C3.91484 12.7229 3.97446 13.0368 4.05395 13.3548ZM9.20492 13.3548H13.6882C13.7359 13.0368 13.7716 12.7229 13.7955 12.4128C13.8193 12.1028 13.8313 11.7809 13.8313 11.447C13.8313 11.1132 13.8193 10.7912 13.7955 10.4812C13.7716 10.1712 13.7359 9.85723 13.6882 9.53927H9.20492C9.15723 9.85723 9.12146 10.1712 9.09761 10.4812C9.07376 10.7912 9.06184 11.1132 9.06184 11.447C9.06184 11.7809 9.07376 12.1028 9.09761 12.4128C9.12146 12.7229 9.15723 13.0368 9.20492 13.3548ZM15.5959 13.3548H18.8391C18.9186 13.0368 18.9783 12.7229 19.018 12.4128C19.0577 12.1028 19.0776 11.7809 19.0776 11.447C19.0776 11.1132 19.0577 10.7912 19.018 10.4812C18.9783 10.1712 18.9186 9.85723 18.8391 9.53927H15.5959C15.6436 9.85723 15.6794 10.1712 15.7033 10.4812C15.7271 10.7912 15.739 11.1132 15.739 11.447C15.739 11.7809 15.7271 12.1028 15.7033 12.4128C15.6794 12.7229 15.6436 13.0368 15.5959 13.3548ZM15.2144 7.6315H18.0283C17.5673 6.8366 16.991 6.14504 16.2994 5.55681C15.6079 4.96858 14.8169 4.53138 13.9266 4.24522C14.2128 4.76985 14.4632 5.31436 14.6778 5.87874C14.8925 6.44312 15.0713 7.02738 15.2144 7.6315ZM9.63417 7.6315H13.2589C13.0682 6.93199 12.8217 6.27222 12.5197 5.6522C12.2176 5.03217 11.8599 4.43599 11.4466 3.86366C11.0332 4.43599 10.6755 5.03217 10.3734 5.6522C10.0714 6.27222 9.82495 6.93199 9.63417 7.6315ZM4.86475 7.6315H7.67871C7.82179 7.02738 8.00065 6.44312 8.21527 5.87874C8.42989 5.31436 8.68029 4.76985 8.96645 4.24522C8.07616 4.53138 7.28523 4.96858 6.59367 5.55681C5.9021 6.14504 5.3258 6.8366 4.86475 7.6315Z" fill="#1D1B20"/>
</svg>
