<svg width="143" height="54" viewBox="0 0 143 54" fill="none" xmlns="http://www.w3.org/2000/svg">
<rect opacity="0.35" x="83.4927" y="23.5" width="24" height="12" rx="3.8" stroke="black"/>
<path opacity="0.4" d="M108.994 27.7822V31.8577C109.799 31.5125 110.322 30.7096 110.322 29.82C110.322 28.9304 109.799 28.1274 108.994 27.7822Z" fill="black"/>
<rect x="84.9944" y="25" width="21" height="9" rx="2.5" fill="black"/>
<path fill-rule="evenodd" clip-rule="evenodd" d="M67.27 26.105C69.7571 26.1051 72.1491 27.0271 73.9516 28.6806C74.0873 28.8083 74.3043 28.8067 74.438 28.677L75.7355 27.4135C75.8032 27.3478 75.8409 27.2587 75.8403 27.166C75.8398 27.0733 75.801 26.9847 75.7325 26.9197C71.0015 22.545 63.5377 22.545 58.8067 26.9197C58.7382 26.9847 58.6993 27.0733 58.6987 27.166C58.698 27.2586 58.7357 27.3477 58.8034 27.4135L60.1012 28.677C60.2348 28.8069 60.4519 28.8085 60.5876 28.6806C62.3903 27.027 64.7826 26.1049 67.27 26.105ZM67.2666 30.3252C68.6239 30.3251 69.9328 30.8369 70.9389 31.761C71.075 31.8922 71.2894 31.8893 71.422 31.7546L72.7093 30.4353C72.7771 30.3661 72.8147 30.2722 72.8137 30.1747C72.8128 30.0771 72.7733 29.984 72.7041 29.9162C69.6403 27.0254 64.8956 27.0254 61.8317 29.9162C61.7625 29.984 61.723 30.0772 61.7221 30.1747C61.7212 30.2723 61.759 30.3662 61.8269 30.4353L63.1138 31.7546C63.2465 31.8893 63.4608 31.8922 63.5969 31.761C64.6024 30.8375 65.9102 30.3258 67.2666 30.3252ZM69.791 33.1188C69.793 33.2241 69.7559 33.3257 69.6886 33.3995L67.5119 35.8542C67.4481 35.9264 67.3611 35.967 67.2704 35.967C67.1796 35.967 67.0926 35.9264 67.0288 35.8542L64.8518 33.3995C64.7845 33.3256 64.7475 33.224 64.7495 33.1187C64.7515 33.0133 64.7923 32.9136 64.8623 32.843C66.2524 31.5291 68.2883 31.5291 69.6784 32.843C69.7484 32.9136 69.7891 33.0134 69.791 33.1188Z" fill="black"/>
<path fill-rule="evenodd" clip-rule="evenodd" d="M51.2001 24.6853C51.2001 24.0522 50.7225 23.5391 50.1334 23.5391H49.0667C48.4776 23.5391 48.0001 24.0522 48.0001 24.6853V34.6193C48.0001 35.2523 48.4776 35.7655 49.0667 35.7655H50.1334C50.7225 35.7655 51.2001 35.2523 51.2001 34.6193V24.6853ZM43.7659 25.9843H44.8326C45.4217 25.9843 45.8993 26.5098 45.8993 27.1581V34.5917C45.8993 35.24 45.4217 35.7655 44.8326 35.7655H43.7659C43.1768 35.7655 42.6993 35.24 42.6993 34.5917V27.1581C42.6993 26.5098 43.1768 25.9843 43.7659 25.9843ZM39.4342 28.6334H38.3675C37.7784 28.6334 37.3008 29.1656 37.3008 29.8221V34.5768C37.3008 35.2333 37.7784 35.7655 38.3675 35.7655H39.4342C40.0233 35.7655 40.5008 35.2333 40.5008 34.5768V29.8221C40.5008 29.1656 40.0233 28.6334 39.4342 28.6334ZM34.1334 31.0787H33.0667C32.4776 31.0787 32.0001 31.6033 32.0001 32.2504V34.5938C32.0001 35.2409 32.4776 35.7655 33.0667 35.7655H34.1334C34.7225 35.7655 35.2001 35.2409 35.2001 34.5938V32.2504C35.2001 31.6033 34.7225 31.0787 34.1334 31.0787Z" fill="black"/>
</svg>
