<svg width="18" height="18" viewBox="0 0 18 18" fill="none" xmlns="http://www.w3.org/2000/svg">
<path d="M11.2513 15.5735C11.0186 15.5735 10.789 15.5193 10.5808 15.4153L7.42184 13.8358C7.21365 13.7317 6.98409 13.6776 6.75134 13.6776C6.5186 13.6776 6.28904 13.7317 6.08084 13.8358L3.3366 15.2083C3.22211 15.2655 3.09489 15.2924 2.96704 15.2866C2.83919 15.2807 2.71496 15.2422 2.60618 15.1748C2.4974 15.1074 2.40769 15.0132 2.34558 14.9013C2.28347 14.7894 2.25103 14.6635 2.25135 14.5355V4.96326C2.25142 4.82401 2.29026 4.68753 2.36351 4.56911C2.43676 4.45069 2.54153 4.355 2.6661 4.29276L6.08084 2.58501C6.28904 2.48097 6.5186 2.42681 6.75134 2.42681C6.98409 2.42681 7.21365 2.48097 7.42184 2.58501L10.5808 4.16451C10.789 4.26855 11.0186 4.32271 11.2513 4.32271M11.2513 4.32271C11.4841 4.32271 11.7136 4.26855 11.9218 4.16451L14.6661 2.79201C14.7805 2.73483 14.9077 2.70786 15.0355 2.71368C15.1633 2.7195 15.2874 2.75791 15.3962 2.82526C15.5049 2.8926 15.5947 2.98664 15.6568 3.09844C15.719 3.21024 15.7515 3.33609 15.7513 3.46401V13.037C15.7513 13.1763 15.7124 13.3127 15.6392 13.4312C15.5659 13.5496 15.4612 13.6453 15.3366 13.7075L11.9218 15.4153C11.7136 15.5193 11.4841 15.5735 11.2513 15.5735M11.2513 4.32271V15.5735M6.75134 2.42681V13.6768" stroke="black" stroke-width="1.125" stroke-linecap="round" stroke-linejoin="round"/>
</svg>
