<svg width="16" height="16" viewBox="0 0 16 16" fill="none" xmlns="http://www.w3.org/2000/svg">
<path d="M14.3537 13.6464L11.2244 10.5176C12.1314 9.42871 12.5837 8.03201 12.4871 6.6181C12.3906 5.20419 11.7527 3.88193 10.7061 2.92637C9.65948 1.97082 8.28477 1.45555 6.86793 1.48775C5.4511 1.51995 4.10122 2.09714 3.0991 3.09926C2.09699 4.10137 1.5198 5.45125 1.4876 6.86808C1.4554 8.28492 1.97067 9.65963 2.92622 10.7062C3.88177 11.7528 5.20404 12.3908 6.61795 12.4873C8.03186 12.5838 9.42856 12.1315 10.5175 11.2245L13.6462 14.3539C13.6927 14.4003 13.7478 14.4372 13.8085 14.4623C13.8692 14.4875 13.9343 14.5004 14 14.5004C14.0657 14.5004 14.1307 14.4875 14.1914 14.4623C14.2521 14.4372 14.3073 14.4003 14.3537 14.3539C14.4002 14.3074 14.437 14.2523 14.4622 14.1916C14.4873 14.1309 14.5003 14.0658 14.5003 14.0001C14.5003 13.9344 14.4873 13.8694 14.4622 13.8087C14.437 13.748 14.4002 13.6928 14.3537 13.6464ZM2.49999 7.00014C2.49999 6.11013 2.76391 5.2401 3.25838 4.50008C3.75284 3.76006 4.45565 3.18328 5.27791 2.84268C6.10018 2.50209 7.00498 2.41298 7.8779 2.58661C8.75081 2.76024 9.55263 3.18883 10.182 3.81816C10.8113 4.4475 11.2399 5.24932 11.4135 6.12224C11.5872 6.99515 11.498 7.89995 11.1574 8.72222C10.8169 9.54449 10.2401 10.2473 9.50006 10.7418C8.76004 11.2362 7.89001 11.5001 6.99999 11.5001C5.80692 11.4988 4.6631 11.0243 3.81947 10.1807C2.97584 9.33704 2.50131 8.19321 2.49999 7.00014Z" fill="black"/>
</svg>
