<svg width="40" height="40" viewBox="0 0 40 40" fill="none" xmlns="http://www.w3.org/2000/svg">
<g clip-path="url(#clip0_169_1654)">
<g filter="url(#filter0_d_169_1654)">
<path d="M20 2.5C16.3545 2.50414 12.8596 3.95412 10.2818 6.53185C7.70412 9.10958 6.25414 12.6045 6.25 16.25C6.25 28.0156 18.75 36.9016 19.2828 37.2734C19.493 37.4207 19.7434 37.4996 20 37.4996C20.2566 37.4996 20.507 37.4207 20.7172 37.2734C21.25 36.9016 33.75 28.0156 33.75 16.25C33.7459 12.6045 32.2959 9.10958 29.7182 6.53185C27.1404 3.95412 23.6455 2.50414 20 2.5ZM20 11.25C20.9889 11.25 21.9556 11.5432 22.7779 12.0927C23.6001 12.6421 24.241 13.423 24.6194 14.3366C24.9978 15.2502 25.0969 16.2555 24.9039 17.2255C24.711 18.1954 24.2348 19.0863 23.5355 19.7855C22.8363 20.4848 21.9454 20.961 20.9755 21.1539C20.0055 21.3469 19.0002 21.2478 18.0866 20.8694C17.173 20.491 16.3921 19.8501 15.8427 19.0279C15.2932 18.2056 15 17.2389 15 16.25C15 14.9239 15.5268 13.6521 16.4645 12.7145C17.4021 11.7768 18.6739 11.25 20 11.25Z" fill="black"/>
<path d="M20 3.25C23.4465 3.25413 26.7504 4.62542 29.1875 7.0625C31.5485 9.42353 32.9097 12.5981 32.9961 15.9277L33 16.251C32.9997 21.8718 30.0075 26.8646 26.8633 30.5479C23.7303 34.2179 20.5294 36.4898 20.2881 36.6582L20.2871 36.6592C20.203 36.7181 20.1026 36.75 20 36.75C19.8974 36.75 19.797 36.7181 19.7129 36.6592L19.7119 36.6582C19.4706 36.4898 16.2697 34.2179 13.1367 30.5479C9.99246 26.8646 7.00035 21.8718 7 16.251C7.00391 12.8041 8.37521 9.49979 10.8125 7.0625C13.2496 4.62542 16.5535 3.25413 20 3.25ZM20 10.5C18.475 10.5 17.0129 11.1062 15.9346 12.1846C14.8562 13.2629 14.25 14.725 14.25 16.25C14.25 17.3871 14.587 18.4988 15.2188 19.4443C15.8506 20.3899 16.7491 21.1273 17.7998 21.5625C18.8504 21.9976 20.0068 22.1115 21.1221 21.8896C22.2374 21.6677 23.2613 21.1195 24.0654 20.3154C24.8695 19.5113 25.4177 18.4874 25.6396 17.3721C25.8615 16.2568 25.7476 15.1004 25.3125 14.0498C24.8773 12.9991 24.1399 12.1006 23.1943 11.4688C22.2488 10.837 21.1371 10.5 20 10.5Z" stroke="white" stroke-width="1.5"/>
</g>
</g>
<defs>
<filter id="filter0_d_169_1654" x="2.25" y="-0.5" width="35.5" height="43" filterUnits="userSpaceOnUse" color-interpolation-filters="sRGB">
<feFlood flood-opacity="0" result="BackgroundImageFix"/>
<feColorMatrix in="SourceAlpha" type="matrix" values="0 0 0 0 0 0 0 0 0 0 0 0 0 0 0 0 0 0 127 0" result="hardAlpha"/>
<feOffset dy="1"/>
<feGaussianBlur stdDeviation="2"/>
<feComposite in2="hardAlpha" operator="out"/>
<feColorMatrix type="matrix" values="0 0 0 0 0 0 0 0 0 0 0 0 0 0 0 0 0 0 0.25 0"/>
<feBlend mode="normal" in2="BackgroundImageFix" result="effect1_dropShadow_169_1654"/>
<feBlend mode="normal" in="SourceGraphic" in2="effect1_dropShadow_169_1654" result="shape"/>
</filter>
<clipPath id="clip0_169_1654">
<rect width="40" height="40" fill="white"/>
</clipPath>
</defs>
</svg>
