<svg width="23" height="23" viewBox="0 0 23 23" fill="none" xmlns="http://www.w3.org/2000/svg">
<path d="M11.4466 13.3548C10.6517 13.3548 9.97602 13.0766 9.41959 12.5202C8.86316 11.9637 8.58494 11.2881 8.58494 10.4932V4.76985C8.58494 3.97495 8.86316 3.29928 9.41959 2.74285C9.97602 2.18642 10.6517 1.9082 11.4466 1.9082C12.2415 1.9082 12.9172 2.18642 13.4736 2.74285C14.03 3.29928 14.3082 3.97495 14.3082 4.76985V10.4932C14.3082 11.2881 14.03 11.9637 13.4736 12.5202C12.9172 13.0766 12.2415 13.3548 11.4466 13.3548ZM10.4927 20.032V17.0988C8.83931 16.8762 7.47208 16.137 6.39101 14.881C5.30994 13.6251 4.76941 12.1625 4.76941 10.4932H6.67718C6.67718 11.8127 7.14219 12.9375 8.07223 13.8675C9.00227 14.7976 10.1271 15.2626 11.4466 15.2626C12.7661 15.2626 13.8909 14.7976 14.821 13.8675C15.751 12.9375 16.216 11.8127 16.216 10.4932H18.1238C18.1238 12.1625 17.5832 13.6251 16.5022 14.881C15.4211 16.137 14.0539 16.8762 12.4005 17.0988V20.032H10.4927Z" fill="#1D1B20"/>
</svg>
