<svg width="20" height="20" viewBox="0 0 20 20" fill="none" xmlns="http://www.w3.org/2000/svg">
<path d="M12.5 5C12.5 3.61929 11.3807 2.5 10 2.5C8.61929 2.5 7.5 3.61929 7.5 5V10C7.5 11.3807 8.61929 12.5 10 12.5C11.3807 12.5 12.5 11.3807 12.5 10V5ZM13.75 10C13.75 12.0711 12.0711 13.75 10 13.75C7.92893 13.75 6.25 12.0711 6.25 10V5C6.25 2.92893 7.92893 1.25 10 1.25C12.0711 1.25 13.75 2.92893 13.75 5V10Z" fill="#2C2828"/>
<path d="M9.375 18.75V15.625C9.375 15.2798 9.65482 15 10 15C10.3452 15 10.625 15.2798 10.625 15.625V18.75C10.625 19.0952 10.3452 19.375 10 19.375C9.65482 19.375 9.375 19.0952 9.375 18.75Z" fill="#2C2828"/>
<path d="M3.75 10C3.75 9.65482 4.02982 9.375 4.375 9.375C4.72018 9.375 5 9.65482 5 10C5 11.3261 5.52716 12.5975 6.46484 13.5352C7.40253 14.4728 8.67392 15 10 15C11.3261 15 12.5975 14.4728 13.5352 13.5352C14.4728 12.5975 15 11.3261 15 10C15 9.65482 15.2798 9.375 15.625 9.375C15.9702 9.375 16.25 9.65482 16.25 10C16.25 11.6576 15.591 13.2468 14.4189 14.4189C13.2468 15.591 11.6576 16.25 10 16.25C8.3424 16.25 6.75316 15.591 5.58105 14.4189C4.40895 13.2468 3.75 11.6576 3.75 10Z" fill="#2C2828"/>
</svg>
