<svg width="16" height="16" viewBox="0 0 16 16" fill="none" xmlns="http://www.w3.org/2000/svg">
<path d="M7.99955 8.66634C8.36774 8.66634 8.66622 8.36786 8.66622 7.99967C8.66622 7.63148 8.36774 7.33301 7.99955 7.33301C7.63136 7.33301 7.33289 7.63148 7.33289 7.99967C7.33289 8.36786 7.63136 8.66634 7.99955 8.66634Z" stroke="#2C2828" stroke-linecap="round" stroke-linejoin="round"/>
<path d="M7.99955 4.00033C8.36774 4.00033 8.66622 3.70185 8.66622 3.33366C8.66622 2.96547 8.36774 2.66699 7.99955 2.66699C7.63136 2.66699 7.33289 2.96547 7.33289 3.33366C7.33289 3.70185 7.63136 4.00033 7.99955 4.00033Z" stroke="#2C2828" stroke-linecap="round" stroke-linejoin="round"/>
<path d="M7.99955 13.3333C8.36774 13.3333 8.66622 13.0349 8.66622 12.6667C8.66622 12.2985 8.36774 12 7.99955 12C7.63136 12 7.33289 12.2985 7.33289 12.6667C7.33289 13.0349 7.63136 13.3333 7.99955 13.3333Z" stroke="#2C2828" stroke-linecap="round" stroke-linejoin="round"/>
</svg>
