<svg width="23" height="23" viewBox="0 0 23 23" fill="none" xmlns="http://www.w3.org/2000/svg">
<path d="M5.72332 13.3546C5.19868 13.3546 4.74956 13.1678 4.37596 12.7942C4.00235 12.4206 3.81555 11.9715 3.81555 11.4468C3.81555 10.9222 4.00235 10.4731 4.37596 10.0995C4.74956 9.72586 5.19868 9.53906 5.72332 9.53906C6.24795 9.53906 6.69708 9.72586 7.07068 10.0995C7.44428 10.4731 7.63109 10.9222 7.63109 11.4468C7.63109 11.9715 7.44428 12.4206 7.07068 12.7942C6.69708 13.1678 6.24795 13.3546 5.72332 13.3546ZM11.4466 13.3546C10.922 13.3546 10.4729 13.1678 10.0993 12.7942C9.72566 12.4206 9.53885 11.9715 9.53885 11.4468C9.53885 10.9222 9.72566 10.4731 10.0993 10.0995C10.4729 9.72586 10.922 9.53906 11.4466 9.53906C11.9713 9.53906 12.4204 9.72586 12.794 10.0995C13.1676 10.4731 13.3544 10.9222 13.3544 11.4468C13.3544 11.9715 13.1676 12.4206 12.794 12.7942C12.4204 13.1678 11.9713 13.3546 11.4466 13.3546ZM17.1699 13.3546C16.6453 13.3546 16.1962 13.1678 15.8226 12.7942C15.449 12.4206 15.2622 11.9715 15.2622 11.4468C15.2622 10.9222 15.449 10.4731 15.8226 10.0995C16.1962 9.72586 16.6453 9.53906 17.1699 9.53906C17.6946 9.53906 18.1437 9.72586 18.5173 10.0995C18.8909 10.4731 19.0777 10.9222 19.0777 11.4468C19.0777 11.9715 18.8909 12.4206 18.5173 12.7942C18.1437 13.1678 17.6946 13.3546 17.1699 13.3546Z" fill="#1D1B20"/>
</svg>
