<svg width="16" height="16" viewBox="0 0 16 16" fill="none" xmlns="http://www.w3.org/2000/svg">
<path d="M4.5 3.75C4.5 3.89834 4.45601 4.04334 4.3736 4.16668C4.29119 4.29001 4.17406 4.38614 4.03701 4.44291C3.89997 4.49968 3.74917 4.51453 3.60368 4.48559C3.4582 4.45665 3.32456 4.38522 3.21967 4.28033C3.11478 4.17544 3.04335 4.0418 3.01441 3.89632C2.98547 3.75083 3.00032 3.60003 3.05709 3.46299C3.11386 3.32594 3.20999 3.20881 3.33332 3.1264C3.45666 3.04399 3.60166 3 3.75 3C3.94891 3 4.13968 3.07902 4.28033 3.21967C4.42098 3.36032 4.5 3.55109 4.5 3.75ZM8 3C7.85166 3 7.70666 3.04399 7.58332 3.1264C7.45999 3.20881 7.36386 3.32594 7.30709 3.46299C7.25033 3.60003 7.23547 3.75083 7.26441 3.89632C7.29335 4.0418 7.36478 4.17544 7.46967 4.28033C7.57456 4.38522 7.7082 4.45665 7.85368 4.48559C7.99917 4.51453 8.14997 4.49968 8.28701 4.44291C8.42406 4.38614 8.54119 4.29001 8.6236 4.16668C8.70601 4.04334 8.75 3.89834 8.75 3.75C8.75 3.55109 8.67098 3.36032 8.53033 3.21967C8.38968 3.07902 8.19891 3 8 3ZM12.25 4.5C12.3983 4.5 12.5433 4.45601 12.6667 4.3736C12.79 4.29119 12.8861 4.17406 12.9429 4.03701C12.9997 3.89997 13.0145 3.74917 12.9856 3.60368C12.9566 3.4582 12.8852 3.32456 12.7803 3.21967C12.6754 3.11478 12.5418 3.04335 12.3963 3.01441C12.2508 2.98547 12.1 3.00032 11.963 3.05709C11.8259 3.11386 11.7088 3.20999 11.6264 3.33332C11.544 3.45666 11.5 3.60166 11.5 3.75C11.5 3.94891 11.579 4.13968 11.7197 4.28033C11.8603 4.42098 12.0511 4.5 12.25 4.5ZM3.75 7.25C3.60166 7.25 3.45666 7.29399 3.33332 7.3764C3.20999 7.45881 3.11386 7.57594 3.05709 7.71299C3.00032 7.85003 2.98547 8.00083 3.01441 8.14632C3.04335 8.2918 3.11478 8.42544 3.21967 8.53033C3.32456 8.63522 3.4582 8.70665 3.60368 8.73559C3.74917 8.76453 3.89997 8.74968 4.03701 8.69291C4.17406 8.63614 4.29119 8.54001 4.3736 8.41668C4.45601 8.29334 4.5 8.14834 4.5 8C4.5 7.80109 4.42098 7.61032 4.28033 7.46967C4.13968 7.32902 3.94891 7.25 3.75 7.25ZM8 7.25C7.85166 7.25 7.70666 7.29399 7.58332 7.3764C7.45999 7.45881 7.36386 7.57594 7.30709 7.71299C7.25033 7.85003 7.23547 8.00083 7.26441 8.14632C7.29335 8.2918 7.36478 8.42544 7.46967 8.53033C7.57456 8.63522 7.7082 8.70665 7.85368 8.73559C7.99917 8.76453 8.14997 8.74968 8.28701 8.69291C8.42406 8.63614 8.54119 8.54001 8.6236 8.41668C8.70601 8.29334 8.75 8.14834 8.75 8C8.75 7.80109 8.67098 7.61032 8.53033 7.46967C8.38968 7.32902 8.19891 7.25 8 7.25ZM12.25 7.25C12.1017 7.25 11.9567 7.29399 11.8333 7.3764C11.71 7.45881 11.6139 7.57594 11.5571 7.71299C11.5003 7.85003 11.4855 8.00083 11.5144 8.14632C11.5434 8.2918 11.6148 8.42544 11.7197 8.53033C11.8246 8.63522 11.9582 8.70665 12.1037 8.73559C12.2492 8.76453 12.4 8.74968 12.537 8.69291C12.6741 8.63614 12.7912 8.54001 12.8736 8.41668C12.956 8.29334 13 8.14834 13 8C13 7.80109 12.921 7.61032 12.7803 7.46967C12.6397 7.32902 12.4489 7.25 12.25 7.25ZM3.75 11.5C3.60166 11.5 3.45666 11.544 3.33332 11.6264C3.20999 11.7088 3.11386 11.8259 3.05709 11.963C3.00032 12.1 2.98547 12.2508 3.01441 12.3963C3.04335 12.5418 3.11478 12.6754 3.21967 12.7803C3.32456 12.8852 3.4582 12.9566 3.60368 12.9856C3.74917 13.0145 3.89997 12.9997 4.03701 12.9429C4.17406 12.8861 4.29119 12.79 4.3736 12.6667C4.45601 12.5433 4.5 12.3983 4.5 12.25C4.5 12.0511 4.42098 11.8603 4.28033 11.7197C4.13968 11.579 3.94891 11.5 3.75 11.5ZM8 11.5C7.85166 11.5 7.70666 11.544 7.58332 11.6264C7.45999 11.7088 7.36386 11.8259 7.30709 11.963C7.25033 12.1 7.23547 12.2508 7.26441 12.3963C7.29335 12.5418 7.36478 12.6754 7.46967 12.7803C7.57456 12.8852 7.7082 12.9566 7.85368 12.9856C7.99917 13.0145 8.14997 12.9997 8.28701 12.9429C8.42406 12.8861 8.54119 12.79 8.6236 12.6667C8.70601 12.5433 8.75 12.3983 8.75 12.25C8.75 12.0511 8.67098 11.8603 8.53033 11.7197C8.38968 11.579 8.19891 11.5 8 11.5ZM12.25 11.5C12.1017 11.5 11.9567 11.544 11.8333 11.6264C11.71 11.7088 11.6139 11.8259 11.5571 11.963C11.5003 12.1 11.4855 12.2508 11.5144 12.3963C11.5434 12.5418 11.6148 12.6754 11.7197 12.7803C11.8246 12.8852 11.9582 12.9566 12.1037 12.9856C12.2492 13.0145 12.4 12.9997 12.537 12.9429C12.6741 12.8861 12.7912 12.79 12.8736 12.6667C12.956 12.5433 13 12.3983 13 12.25C13 12.0511 12.921 11.8603 12.7803 11.7197C12.6397 11.579 12.4489 11.5 12.25 11.5Z" fill="#1E1E1E"/>
</svg>
