<svg width="20" height="20" viewBox="0 0 20 20" fill="none" xmlns="http://www.w3.org/2000/svg">
<g clip-path="url(#clip0_155_510)">
<path d="M14.104 4.95543C14.1861 4.95538 14.2674 4.97153 14.3433 5.00294C14.4192 5.03435 14.4882 5.08041 14.5462 5.13849C14.6043 5.19657 14.6504 5.26552 14.6818 5.34141C14.7132 5.41731 14.7294 5.49864 14.7293 5.58078L14.7265 14.6433C14.7265 15.8038 14.2654 16.9167 13.4448 17.7372C12.6242 18.5577 11.5112 19.0186 10.3508 19.0186C9.19031 19.0185 8.07742 18.5574 7.2569 17.7368C6.43639 16.9162 5.97547 15.8033 5.97554 14.6428L5.89489 3.59536C5.89445 2.76639 6.22334 1.9712 6.8092 1.38471C7.39505 0.798233 8.1899 0.468504 9.01887 0.468065C9.84784 0.467625 10.643 0.79651 11.2295 1.38237C11.816 1.96823 12.1457 2.76307 12.1462 3.59204L12.2257 14.6406C12.2257 15.1387 12.0278 15.6165 11.6756 15.9687C11.3233 16.321 10.8456 16.5188 10.3475 16.5188C9.84931 16.5188 9.37157 16.321 9.01933 15.9687C8.66709 15.6165 8.4692 15.1387 8.4692 14.6406L8.39628 5.36423C8.39359 5.28091 8.40759 5.19791 8.43746 5.12008C8.46733 5.04226 8.51246 4.97121 8.57021 4.91109C8.62795 4.85097 8.69714 4.80301 8.77369 4.77004C8.85025 4.73706 8.93263 4.71973 9.01598 4.71907C9.09934 4.7184 9.18198 4.73442 9.25905 4.76618C9.33612 4.79793 9.40606 4.84478 9.46475 4.90397C9.52345 4.96316 9.56971 5.03349 9.60081 5.11083C9.63192 5.18816 9.64724 5.27094 9.64587 5.35428L9.72321 14.6362C9.72288 14.7183 9.73873 14.7996 9.76984 14.8756C9.80095 14.9515 9.84672 15.0206 9.90453 15.0789C9.96234 15.1372 10.0311 15.1835 10.1068 15.2152C10.1825 15.2469 10.2637 15.2634 10.3458 15.2637C10.4279 15.2641 10.5092 15.2482 10.5852 15.2171C10.6612 15.186 10.7302 15.1402 10.7885 15.0824C10.8468 15.0246 10.8931 14.9559 10.9248 14.8802C10.9565 14.8044 10.973 14.7232 10.9734 14.6411L10.896 3.59591C10.8965 3.09828 10.6993 2.62082 10.3478 2.26858C9.99631 1.91634 9.51926 1.71817 9.02163 1.71766C8.524 1.71714 8.04655 1.91433 7.6943 2.26585C7.34206 2.61737 7.14389 3.09441 7.14338 3.59204L7.22292 14.6362C7.2226 15.0466 7.30311 15.4531 7.45988 15.8324C7.61664 16.2117 7.84658 16.5564 8.13656 16.8469C8.42655 17.1373 8.7709 17.3678 9.14996 17.5252C9.52902 17.6825 9.93537 17.7637 10.3458 17.764C10.7562 17.7643 11.1627 17.6838 11.542 17.5271C11.9213 17.3703 12.266 17.1404 12.5565 16.8504C12.8469 16.5604 13.0774 16.216 13.2348 15.837C13.3921 15.4579 13.4733 15.0516 13.4736 14.6411L13.477 5.57802C13.4776 5.41233 13.544 5.25367 13.6616 5.13693C13.7791 5.02018 13.9383 4.9549 14.104 4.95543Z" fill="#2C2828"/>
</g>
<defs>
<clipPath id="clip0_155_510">
<rect width="20" height="20" fill="white"/>
</clipPath>
</defs>
</svg>
