<svg width="20" height="20" viewBox="0 0 20 20" fill="none" xmlns="http://www.w3.org/2000/svg">
<path d="M18.5872 15.6328L11.0833 2.5141C10.9745 2.32079 10.8163 2.1599 10.6249 2.04793C10.4334 1.93596 10.2156 1.87695 9.99383 1.87695C9.77204 1.87695 9.55424 1.93596 9.36279 2.04793C9.17133 2.1599 9.01312 2.32079 8.90438 2.5141L1.41297 15.6391C1.28876 15.8606 1.23499 16.1148 1.25881 16.3676C1.28263 16.6205 1.38292 16.8601 1.54631 17.0546C1.70971 17.249 1.92847 17.3891 2.17346 17.4561C2.41844 17.5231 2.67803 17.5139 2.91766 17.4297L10.0013 15.0352L17.0848 17.4282C17.2186 17.4753 17.3594 17.4996 17.5013 17.5C17.7196 17.4993 17.9339 17.4414 18.1228 17.3321C18.3118 17.2228 18.4689 17.066 18.5784 16.8771C18.6879 16.6883 18.7461 16.474 18.747 16.2557C18.748 16.0374 18.6919 15.8227 18.5841 15.6328H18.5872ZM17.4895 16.2453L10.6263 13.9266V9.37504C10.6263 9.20927 10.5604 9.0503 10.4432 8.93309C10.326 8.81588 10.167 8.75004 10.0013 8.75004C9.83549 8.75004 9.67652 8.81588 9.55931 8.93309C9.4421 9.0503 9.37625 9.20927 9.37625 9.37504V13.9266L2.51375 16.2453L2.50125 16.25L9.99031 3.12504L17.5013 16.25L17.4895 16.2453Z" fill="white"/>
</svg>
