<svg width="23" height="23" viewBox="0 0 23 23" fill="none" xmlns="http://www.w3.org/2000/svg">
<path d="M8.82346 20.9859L8.4419 17.9334C8.23523 17.854 8.04048 17.7586 7.85765 17.6473C7.67482 17.536 7.49597 17.4168 7.32109 17.2896L4.48329 18.4819L1.86011 13.951L4.31636 12.0909C4.30046 11.9796 4.29251 11.8723 4.29251 11.769V11.1251C4.29251 11.0218 4.30046 10.9145 4.31636 10.8032L1.86011 8.94309L4.48329 4.41215L7.32109 5.6045C7.49597 5.47732 7.6788 5.35808 7.86957 5.2468C8.06035 5.13551 8.25113 5.04012 8.4419 4.96063L8.82346 1.9082H14.0698L14.4514 4.96063C14.658 5.04012 14.8528 5.13551 15.0356 5.2468C15.2185 5.35808 15.3973 5.47732 15.5722 5.6045L18.41 4.41215L21.0332 8.94309L18.5769 10.8032C18.5928 10.9145 18.6008 11.0218 18.6008 11.1251V11.769C18.6008 11.8723 18.5849 11.9796 18.5531 12.0909L21.0093 13.951L18.3861 18.4819L15.5722 17.2896C15.3973 17.4168 15.2145 17.536 15.0237 17.6473C14.8329 17.7586 14.6421 17.854 14.4514 17.9334L14.0698 20.9859H8.82346ZM11.4943 14.7856C12.4164 14.7856 13.2034 14.4597 13.8552 13.8079C14.507 13.1561 14.8329 12.3691 14.8329 11.447C14.8329 10.525 14.507 9.738 13.8552 9.08618C13.2034 8.43436 12.4164 8.10845 11.4943 8.10845C10.5563 8.10845 9.76542 8.43436 9.12155 9.08618C8.47767 9.738 8.15574 10.525 8.15574 11.447C8.15574 12.3691 8.47767 13.1561 9.12155 13.8079C9.76542 14.4597 10.5563 14.7856 11.4943 14.7856Z" fill="#1D1B20"/>
</svg>
