<svg width="16" height="16" viewBox="0 0 16 16" fill="none" xmlns="http://www.w3.org/2000/svg">
<path d="M10.9976 10C10.664 9.99994 10.3339 10.0668 10.0266 10.1966C9.71937 10.3264 9.44129 10.5165 9.20884 10.7557L6.32759 8.9038C6.55423 8.32261 6.55423 7.67749 6.32759 7.0963L9.20884 5.24442C9.64162 5.68775 10.2236 5.95458 10.8419 5.99319C11.4603 6.0318 12.0709 5.83944 12.5555 5.45339C13.0401 5.06735 13.364 4.51513 13.4646 3.90379C13.5651 3.29246 13.4351 2.66557 13.0997 2.14466C12.7643 1.62375 12.2475 1.24593 11.6493 1.08445C11.0512 0.922981 10.4144 0.989355 9.86242 1.27071C9.31045 1.55206 8.8826 2.02835 8.66184 2.60723C8.44108 3.18611 8.44313 3.82634 8.66759 4.4038L5.78634 6.25567C5.43938 5.89947 4.99408 5.65483 4.50736 5.55301C4.02064 5.4512 3.51462 5.49685 3.05398 5.68411C2.59334 5.87138 2.199 6.19176 1.92139 6.6043C1.64377 7.01684 1.49548 7.5028 1.49548 8.00005C1.49548 8.4973 1.64377 8.98326 1.92139 9.3958C2.199 9.80834 2.59334 10.1287 3.05398 10.316C3.51462 10.5033 4.02064 10.5489 4.50736 10.4471C4.99408 10.3453 5.43938 10.1006 5.78634 9.74442L8.66759 11.5963C8.47457 12.0941 8.44601 12.6407 8.58608 13.1559C8.72616 13.6712 9.02752 14.128 9.44603 14.4596C9.86454 14.7912 10.3782 14.98 10.9118 14.9985C11.4454 15.0171 11.971 14.8642 12.4115 14.5625C12.8519 14.2607 13.1842 13.8258 13.3597 13.3215C13.5351 12.8173 13.5445 12.27 13.3865 11.76C13.2284 11.25 12.9113 10.804 12.4814 10.4873C12.0515 10.1706 11.5315 9.99985 10.9976 10ZM10.9976 2.00005C11.2943 2.00005 11.5843 2.08802 11.8309 2.25284C12.0776 2.41767 12.2699 2.65193 12.3834 2.92602C12.4969 3.20011 12.5266 3.50171 12.4688 3.79268C12.4109 4.08366 12.268 4.35093 12.0582 4.56071C11.8485 4.77049 11.5812 4.91335 11.2902 4.97123C10.9993 5.02911 10.6977 4.9994 10.4236 4.88587C10.1495 4.77234 9.91521 4.58008 9.75038 4.3334C9.58556 4.08673 9.49759 3.79672 9.49759 3.50005C9.49759 3.10222 9.65562 2.72069 9.93693 2.43939C10.2182 2.15808 10.5998 2.00005 10.9976 2.00005ZM3.99759 9.50005C3.70092 9.50005 3.41091 9.41208 3.16423 9.24725C2.91756 9.08243 2.7253 8.84816 2.61177 8.57408C2.49824 8.29999 2.46853 7.99839 2.52641 7.70741C2.58429 7.41644 2.72715 7.14917 2.93693 6.93939C3.14671 6.72961 3.41398 6.58675 3.70495 6.52887C3.99592 6.47099 4.29752 6.5007 4.57161 6.61423C4.8457 6.72776 5.07997 6.92002 5.24479 7.16669C5.40961 7.41337 5.49759 7.70338 5.49759 8.00005C5.49759 8.39787 5.33955 8.77941 5.05825 9.06071C4.77694 9.34201 4.39541 9.50005 3.99759 9.50005ZM10.9976 14.0001C10.7009 14.0001 10.4109 13.9121 10.1642 13.7473C9.91756 13.5824 9.7253 13.3482 9.61177 13.0741C9.49824 12.8 9.46853 12.4984 9.52641 12.2074C9.58429 11.9164 9.72715 11.6492 9.93693 11.4394C10.1467 11.2296 10.414 11.0868 10.705 11.0289C10.9959 10.971 11.2975 11.0007 11.5716 11.1142C11.8457 11.2278 12.08 11.42 12.2448 11.6667C12.4096 11.9134 12.4976 12.2034 12.4976 12.5C12.4976 12.8979 12.3396 13.2794 12.0582 13.5607C11.7769 13.842 11.3954 14.0001 10.9976 14.0001Z" fill="#2C2828"/>
</svg>
