<svg width="14" height="14" viewBox="0 0 14 14" fill="none" xmlns="http://www.w3.org/2000/svg">
<path d="M12.229 10.824L7.94782 1.49953L7.94357 1.49141C7.87177 1.34421 7.7601 1.22011 7.62126 1.13324C7.48242 1.04637 7.32198 1.0002 7.1582 1C6.99443 0.999799 6.83388 1.04557 6.69482 1.1321C6.55577 1.21863 6.4438 1.34245 6.37163 1.48948C6.36999 1.49206 6.36857 1.49478 6.36738 1.4976L2.08817 10.824C2.00832 10.9867 1.98179 11.1705 2.01233 11.3492C2.04288 11.5279 2.12895 11.6924 2.25832 11.8194L2.26992 11.831C2.40162 11.9607 2.57152 12.0446 2.75456 12.0705C2.9376 12.0963 3.12409 12.0626 3.28655 11.9744L3.2966 11.969L7.15741 9.79732L11.0182 11.969L11.0283 11.9744C11.1909 12.0606 11.3766 12.0932 11.5589 12.0677C11.7412 12.0422 11.9108 11.9598 12.0436 11.8323C12.1764 11.7049 12.2656 11.5388 12.2985 11.3577C12.3315 11.1766 12.3064 10.9897 12.227 10.8236L12.229 10.824ZM7.3728 8.91371C7.30737 8.87697 7.2336 8.85767 7.15857 8.85767C7.08353 8.85767 7.00976 8.87697 6.94434 8.91371L2.87781 11.2014L2.88206 11.1925L7.15857 1.87038L11.4355 11.1914L11.4393 11.1999L7.3728 8.91371Z" fill="white"/>
</svg>
