<svg width="14" height="14" viewBox="0 0 14 14" fill="none" xmlns="http://www.w3.org/2000/svg">
<path d="M12.8138 6.28121L10.3529 8.40473L11.1026 11.5804C11.144 11.7528 11.1333 11.9336 11.072 12.1C11.0107 12.2663 10.9014 12.4107 10.7581 12.515C10.6147 12.6193 10.4436 12.6788 10.2665 12.6859C10.0893 12.693 9.91405 12.6474 9.76278 12.555L7.00106 10.8553L4.23771 12.555C4.08645 12.6469 3.91139 12.692 3.73455 12.6846C3.55771 12.6773 3.387 12.6177 3.24393 12.5135C3.10085 12.4093 2.9918 12.2651 2.93051 12.0991C2.86922 11.9331 2.85843 11.7526 2.8995 11.5804L3.652 8.40473L1.19106 6.28121C1.05724 6.16555 0.960461 6.01303 0.912805 5.8427C0.865149 5.67236 0.868731 5.49176 0.923104 5.32345C0.977477 5.15514 1.08023 5.00658 1.21853 4.89632C1.35684 4.78606 1.52456 4.71899 1.70075 4.70348L4.92731 4.44317L6.172 1.43098C6.23937 1.26682 6.35404 1.1264 6.50142 1.02757C6.64881 0.928744 6.82225 0.875977 6.9997 0.875977C7.17715 0.875977 7.35059 0.928744 7.49797 1.02757C7.64535 1.1264 7.76002 1.26682 7.82739 1.43098L9.07153 4.44317L12.2981 4.70348C12.4746 4.71841 12.6429 4.78511 12.7817 4.89522C12.9205 5.00532 13.0237 5.15395 13.0784 5.32246C13.1331 5.49098 13.1369 5.67189 13.0892 5.84254C13.0416 6.01318 12.9446 6.16597 12.8105 6.28176L12.8138 6.28121Z" fill="white"/>
<path d="M6.99963 1.37598C7.07779 1.37598 7.15441 1.39892 7.21936 1.44238C7.28438 1.48598 7.33515 1.54868 7.36487 1.62109V1.62207L8.60901 4.63379L8.7262 4.91699L9.03088 4.94141L12.2555 5.20117V5.20215C12.334 5.20879 12.4096 5.23816 12.4713 5.28711C12.5328 5.33599 12.5789 5.40186 12.6031 5.47656C12.6275 5.55142 12.6292 5.63219 12.608 5.70801C12.5869 5.78381 12.5435 5.85186 12.484 5.90332L11.1354 7.06836V7.06738L10.026 8.02637L9.79651 8.22461L9.86584 8.51953L10.6158 11.6953L10.6168 11.6973C10.635 11.7734 10.6302 11.8533 10.6031 11.9268C10.576 12.0004 10.5269 12.0642 10.4635 12.1104C10.4002 12.1564 10.3249 12.1833 10.2467 12.1865C10.1683 12.1897 10.09 12.1688 10.0231 12.1279L7.26331 10.4297L7.00159 10.2686L6.73889 10.4297L3.97815 12.1279C3.91127 12.1686 3.8337 12.1888 3.75549 12.1855C3.67736 12.1823 3.60195 12.1554 3.5387 12.1094C3.47538 12.0633 3.42715 11.9993 3.40002 11.9258C3.37291 11.8523 3.3672 11.7725 3.38538 11.6963L3.38635 11.6953L4.13831 8.51953L4.20862 8.22461L3.97913 8.02637L1.51721 5.90234C1.45811 5.85101 1.41526 5.78341 1.39417 5.70801C1.37301 5.63239 1.37497 5.55227 1.39905 5.47754C1.4232 5.40276 1.46848 5.33612 1.52991 5.28711C1.59017 5.23906 1.66324 5.20882 1.73987 5.20117L1.74084 5.20215L4.96741 4.94141L5.27209 4.91699L5.38928 4.63379L6.6344 1.62207V1.62109C6.66412 1.54868 6.71489 1.48598 6.77991 1.44238C6.84486 1.3989 6.92147 1.37599 6.99963 1.37598Z" stroke="black" stroke-opacity="0.52"/>
</svg>
