<svg width="23" height="23" viewBox="0 0 23 23" fill="none" xmlns="http://www.w3.org/2000/svg">
<path d="M20.27 14.9758V5.71124C20.27 4.00271 18.8904 2.62305 17.1818 2.62305H5.71137C4.00283 2.62305 2.62317 4.00271 2.62317 5.71124V17.1817C2.62317 18.8902 4.00283 20.2699 5.71137 20.2699H14.976L20.27 14.9758ZM5.71137 18.5052C4.98143 18.5052 4.38785 17.9116 4.38785 17.1817V5.71124C4.38785 4.98131 4.98143 4.38773 5.71137 4.38773H17.1818C17.9118 4.38773 18.5053 4.98131 18.5053 5.71124V14.0935H17.1818C15.4733 14.0935 14.0936 15.4732 14.0936 17.1817V18.5052H5.71137ZM9.47335 9.48927C9.24074 8.6711 8.39048 8.18982 7.57231 8.42244C6.75414 8.65506 6.27286 9.50532 6.50548 10.3315C6.56965 10.5561 6.68194 10.7566 6.82633 10.9251L9.50544 10.1711C9.54555 9.94649 9.53752 9.71387 9.47335 9.48927ZM14.992 7.93314C14.7674 7.11497 13.9091 6.63369 13.091 6.86631C12.2728 7.09893 11.7915 7.94918 12.0241 8.77538C12.0883 8.99997 12.2006 9.20051 12.345 9.36895L15.0241 8.61495C15.0642 8.39036 15.0562 8.15774 14.992 7.93314ZM15.7781 10.6925L7.27552 13.0908C8.42256 14.6069 10.4118 15.3448 12.345 14.7994C14.2781 14.2539 15.5856 12.5775 15.7781 10.6925Z" fill="#1D1B20"/>
</svg>
