<svg width="16" height="16" viewBox="0 0 16 16" fill="none" xmlns="http://www.w3.org/2000/svg">
<path d="M14 5.49952H10.9625L11.4919 2.58889C11.5131 2.45948 11.4827 2.32689 11.4071 2.21971C11.3316 2.11252 11.2169 2.03932 11.0879 2.01587C10.9588 1.99242 10.8258 2.02061 10.7173 2.09436C10.6089 2.16812 10.5337 2.28152 10.5081 2.41014L9.94563 5.49952H6.9625L7.49188 2.58889C7.51314 2.45948 7.48271 2.32689 7.40714 2.21971C7.33157 2.11252 7.21692 2.03932 7.08788 2.01587C6.95885 1.99242 6.82576 2.02061 6.71732 2.09436C6.60887 2.16812 6.53374 2.28152 6.50812 2.41014L5.94625 5.49952H3C2.86739 5.49952 2.74021 5.5522 2.64645 5.64597C2.55268 5.73973 2.5 5.86691 2.5 5.99952C2.5 6.13213 2.55268 6.2593 2.64645 6.35307C2.74021 6.44684 2.86739 6.49952 3 6.49952H5.76438L5.21875 9.49952H2C1.86739 9.49952 1.74021 9.5522 1.64645 9.64596C1.55268 9.73973 1.5 9.86691 1.5 9.99952C1.5 10.1321 1.55268 10.2593 1.64645 10.3531C1.74021 10.4468 1.86739 10.4995 2 10.4995H5.0375L4.50812 13.4101C4.48444 13.5406 4.51354 13.6751 4.58902 13.7841C4.6645 13.8931 4.78018 13.9677 4.91062 13.9914C4.9401 13.9968 4.97002 13.9996 5 13.9995C5.11699 13.9994 5.23021 13.9582 5.31997 13.8831C5.40973 13.8081 5.47034 13.704 5.49125 13.5889L6.05375 10.4995H9.0375L8.50813 13.4101C8.48444 13.5406 8.51354 13.6751 8.58902 13.7841C8.6645 13.8931 8.78018 13.9677 8.91063 13.9914C8.9401 13.9968 8.97002 13.9996 9 13.9995C9.11699 13.9994 9.23021 13.9582 9.31997 13.8831C9.40973 13.8081 9.47034 13.704 9.49125 13.5889L10.0538 10.4995H13C13.1326 10.4995 13.2598 10.4468 13.3536 10.3531C13.4473 10.2593 13.5 10.1321 13.5 9.99952C13.5 9.86691 13.4473 9.73973 13.3536 9.64596C13.2598 9.5522 13.1326 9.49952 13 9.49952H10.2356L10.7812 6.49952H14C14.1326 6.49952 14.2598 6.44684 14.3536 6.35307C14.4473 6.2593 14.5 6.13213 14.5 5.99952C14.5 5.86691 14.4473 5.73973 14.3536 5.64597C14.2598 5.5522 14.1326 5.49952 14 5.49952ZM9.21875 9.49952H6.23562L6.78125 6.49952H9.76437L9.21875 9.49952Z" fill="#6E6E6E"/>
</svg>
