<svg width="14" height="14" viewBox="0 0 14 14" fill="none" xmlns="http://www.w3.org/2000/svg">
<path d="M12.665 11.8357L10.5008 9.68899C11.3409 8.64156 11.7477 7.31208 11.6376 5.97391C11.5275 4.63575 10.9089 3.39061 9.90902 2.49453C8.9091 1.59845 7.60385 1.11954 6.26167 1.15626C4.91949 1.19299 3.64239 1.74257 2.69296 2.69199C1.74354 3.64141 1.19397 4.91851 1.15724 6.26069C1.12051 7.60288 1.59943 8.90812 2.49551 9.90804C3.39159 10.908 4.63672 11.5266 5.97489 11.6366C7.31306 11.7467 8.64254 11.3399 9.68997 10.4998L11.8366 12.6465C11.8909 12.7012 11.9554 12.7446 12.0265 12.7742C12.0975 12.8038 12.1738 12.819 12.2508 12.819C12.3278 12.819 12.4041 12.8038 12.4751 12.7742C12.5462 12.7446 12.6107 12.7012 12.665 12.6465C12.7701 12.5377 12.8289 12.3924 12.8289 12.2411C12.8289 12.0898 12.7701 11.9444 12.665 11.8357ZM6.41747 10.4998C5.60986 10.4998 4.82039 10.2603 4.14889 9.81166C3.47739 9.36297 2.95402 8.72524 2.64496 7.97911C2.3359 7.23298 2.25504 6.41196 2.41259 5.61987C2.57015 4.82778 2.95905 4.1002 3.53011 3.52914C4.10118 2.95807 4.82876 2.56917 5.62085 2.41162C6.41294 2.25406 7.23396 2.33492 7.98009 2.64398C8.72622 2.95304 9.36395 3.47641 9.81263 4.14791C10.2613 4.81941 10.5008 5.60888 10.5008 6.41649C10.5008 7.49946 10.0706 8.53807 9.30482 9.30384C8.53904 10.0696 7.50043 10.4998 6.41747 10.4998Z" fill="#B0B0B0"/>
</svg>
