<svg width="15" height="11" viewBox="0 0 15 11" fill="none" xmlns="http://www.w3.org/2000/svg">
<path d="M13.2562 0H9.37541C9.00789 0.000467795 8.6441 0.0657149 8.30498 0.191986C8.14175 0.254909 7.98533 0.331037 7.8377 0.419415C7.69145 0.504676 7.5559 0.603698 7.43339 0.714778C7.38368 0.759082 7.33728 0.803386 7.29088 0.850644C7.24449 0.803386 7.19809 0.759082 7.14838 0.714778C7.02587 0.603698 6.89032 0.504676 6.74407 0.419415C6.59643 0.331037 6.44002 0.254909 6.27679 0.191986C5.93767 0.0657149 5.57388 0.000467795 5.20635 0H1.32562C1.15153 0 0.979155 0.0305592 0.818324 0.0899326C0.657493 0.149306 0.511358 0.236331 0.388264 0.346039C0.265169 0.455747 0.167525 0.585989 0.100906 0.729329C0.034288 0.872669 -2.04003e-09 1.0263 0 1.18145V2.96839C2.69092e-05 3.12505 0.0698701 3.27528 0.194168 3.38604C0.318465 3.4968 0.487038 3.55903 0.662808 3.55903C0.838577 3.55903 1.00715 3.4968 1.13145 3.38604C1.25574 3.27528 1.32559 3.12505 1.32562 2.96839V1.18145H5.20635C5.30323 1.18151 5.39984 1.19042 5.49467 1.20803C5.58577 1.22409 5.67466 1.24884 5.7598 1.28187C5.84443 1.31322 5.92545 1.35179 6.00172 1.39707C6.15304 1.48856 6.28349 1.60483 6.38615 1.73969C6.43695 1.80767 6.48023 1.87988 6.5154 1.9553C6.55246 2.03118 6.58024 2.1104 6.59825 2.19159C6.61801 2.27611 6.62801 2.36222 6.62808 2.44856V4.43044C6.62808 4.58711 6.69791 4.73736 6.82221 4.84814C6.94651 4.95893 7.1151 5.02116 7.29088 5.02116C7.46667 5.02116 7.63526 4.95893 7.75956 4.84814C7.88386 4.73736 7.95369 4.58711 7.95369 4.43044V2.44856C7.95376 2.36222 7.96375 2.27611 7.98352 2.19159C8.00153 2.1104 8.02931 2.03118 8.06637 1.9553C8.10153 1.87988 8.14482 1.80767 8.19561 1.73969C8.3007 1.60663 8.43075 1.49072 8.58004 1.39707C8.65632 1.35179 8.73734 1.31322 8.82197 1.28187C8.90711 1.24884 8.996 1.22409 9.08709 1.20803C9.18193 1.19042 9.27854 1.18151 9.37541 1.18145H13.2562V8.25243H8.6165C8.51388 8.25208 8.41257 8.27298 8.32056 8.31347C8.22854 8.35396 8.14834 8.41294 8.08625 8.48577C8.06378 8.51364 8.03943 8.54027 8.01334 8.56551C7.98733 8.58967 7.95966 8.61236 7.93049 8.63345C7.90182 8.65668 7.87075 8.67744 7.8377 8.69547C7.80762 8.71502 7.77542 8.73184 7.74159 8.74568C7.70895 8.76244 7.67454 8.77629 7.63886 8.78704L7.52949 8.81953L7.41682 8.83725C7.33759 8.84611 7.25743 8.84611 7.17821 8.83725L7.06553 8.81953L6.95948 8.80476L6.85674 8.76636C6.79112 8.73263 6.72802 8.69513 6.66784 8.65412L6.58499 8.58324C6.55891 8.55799 6.53456 8.53136 6.51208 8.50349C6.44833 8.42863 6.36547 8.36842 6.27036 8.32783C6.17526 8.28725 6.07067 8.26748 5.96527 8.27015H1.32562V5.61189C1.32559 5.45523 1.25574 5.305 1.13145 5.19424C1.00715 5.08348 0.838577 5.02125 0.662808 5.02125C0.487038 5.02125 0.318465 5.08348 0.194168 5.19424C0.0698701 5.305 2.69092e-05 5.45523 0 5.61189V8.27015C0 8.4253 0.034288 8.57893 0.100906 8.72227C0.167525 8.86561 0.265169 8.99586 0.388264 9.10556C0.511358 9.21527 0.657493 9.3023 0.818324 9.36167C0.979155 9.42104 1.15153 9.4516 1.32562 9.4516H5.67695L5.80288 9.55498C5.86883 9.60546 5.93859 9.65184 6.01166 9.6938C6.08477 9.73867 6.16116 9.77913 6.24033 9.8149C6.31656 9.85034 6.39941 9.88283 6.48226 9.91237C6.56511 9.9419 6.65127 9.96258 6.74075 9.98325C6.82893 10.0037 6.91864 10.0185 7.00919 10.0276C7.10272 10.037 7.19676 10.0419 7.29088 10.0423C7.38361 10.0469 7.47654 10.0469 7.56926 10.0423C7.66095 10.0336 7.75178 10.0187 7.84101 9.99802C7.92939 9.97636 8.01555 9.95273 8.09951 9.92714C8.18236 9.8976 8.26521 9.86511 8.34475 9.82967C8.42244 9.79323 8.49769 9.7528 8.5701 9.70857C8.64318 9.66661 8.71294 9.62022 8.77889 9.56975L8.90482 9.46637H13.2562C13.4302 9.46637 13.6026 9.43581 13.7634 9.37644C13.9243 9.31706 14.0704 9.23004 14.1935 9.12033C14.3166 9.01062 14.4142 8.88038 14.4809 8.73704C14.5475 8.5937 14.5818 8.44007 14.5818 8.28492V1.18145C14.5818 1.0263 14.5475 0.872669 14.4809 0.729329C14.4142 0.585989 14.3166 0.455747 14.1935 0.346039C14.0704 0.236331 13.9243 0.149306 13.7634 0.0899326C13.6026 0.0305592 13.4302 0 13.2562 0Z" fill="#2C2C2C"/>
</svg>
