<svg width="41" height="41" viewBox="0 0 41 41" fill="none" xmlns="http://www.w3.org/2000/svg">
<path d="M35.5333 0H5.46667C2.44747 0 0 2.44747 0 5.46667V35.5333C0 38.5525 2.44747 41 5.46667 41H35.5333C38.5525 41 41 38.5525 41 35.5333V5.46667C41 2.44747 38.5525 0 35.5333 0ZM8.87923 20.2212C8.84643 20.6925 8.81637 21.1667 8.7633 21.638C8.67036 22.4562 8.48563 23.2513 8.11185 23.9898C8.01573 24.1734 7.88339 24.3367 7.74786 24.544C7.66541 24.3702 7.59593 24.2335 7.53307 24.0932C7.31087 23.5967 7.09152 23.0989 6.87502 22.5999C6.85156 22.5464 6.83516 22.4698 6.85862 22.4229C7.00075 22.119 7.01054 21.7947 7.03013 21.4706C7.05701 21.0631 7.09027 20.659 7.11988 20.2517C7.14288 19.9401 7.15587 19.6299 7.18206 19.3192C7.21213 18.9586 7.24857 18.5978 7.27818 18.2404C7.28479 18.153 7.32465 18.1266 7.40392 18.1266C7.89706 18.1266 8.3861 18.1266 8.87923 18.1234C8.9847 18.1234 9.01476 18.1671 9.00816 18.2671C8.96511 18.9181 8.92525 19.5698 8.87923 20.2212ZM12.0508 24.1062C12.018 24.5271 11.8224 24.8845 11.4916 25.1517C11.2499 25.3453 10.9691 25.4257 10.6614 25.4223C10.4001 25.4223 10.1423 25.4189 9.881 25.4223C9.79194 25.4223 9.73545 25.3954 9.69901 25.3086C9.54708 24.9681 9.39173 24.6269 9.23981 24.2866C9.21634 24.2362 9.20974 24.1827 9.18947 24.1328C9.11681 23.9492 9.11999 23.9422 9.32181 23.9388H9.94045C10.2051 23.9388 10.3177 23.829 10.3208 23.5577C10.324 23.3543 10.324 23.1507 10.324 22.9466V19.7096C10.3306 19.7167 10.3338 19.7167 10.3372 19.7167V15.9016C10.3372 15.711 10.3438 15.7044 10.5324 15.7044H11.8321C12.0606 15.7044 12.0638 15.711 12.0638 15.9449C12.0638 17.1544 12.0638 18.3634 12.0672 19.5698C12.0706 20.6319 12.0804 21.6945 12.0804 22.7564C12.0804 23.2076 12.087 23.6579 12.0508 24.1062ZM15.4135 22.8201C15.1916 23.3345 14.9598 23.8422 14.732 24.3531C14.7117 24.4037 14.6789 24.4535 14.6261 24.5499V24.5503C14.4937 24.3499 14.355 24.1864 14.2653 23.9989C14.1395 23.7258 14.0637 23.4279 13.938 23.1538C13.8024 22.8566 13.753 22.5363 13.6899 22.222C13.6375 21.9541 13.6275 21.6769 13.6079 21.4066C13.5544 20.7216 13.5084 20.0369 13.4548 19.3559C13.426 18.9825 13.3953 18.6094 13.3626 18.2363C13.356 18.1696 13.3728 18.1395 13.4489 18.1395C13.9616 18.1395 14.471 18.1329 14.9837 18.1297C15.0793 18.1297 15.1192 18.1728 15.1224 18.263C15.1356 18.47 15.1454 18.6773 15.1618 18.8846C15.175 19.0552 15.1946 19.2251 15.2083 19.3923C15.2313 19.6329 15.2547 19.8734 15.2711 20.1105C15.2941 20.4178 15.2941 20.7253 15.3372 21.0287C15.3969 21.4933 15.3504 21.9676 15.5121 22.4224C15.5518 22.5293 15.4691 22.6933 15.4135 22.8201ZM19.1629 23.7996C19.034 24.0968 18.8951 24.3875 18.763 24.6815C18.6899 24.8483 18.6208 25.015 18.5509 25.1822C18.4685 25.3829 18.4122 25.4227 18.2006 25.4227H17.2086C16.874 25.4227 16.5401 25.4332 16.2062 25.4193C16.0476 25.4129 15.8918 25.3626 15.7333 25.3291C15.6536 25.3127 15.6372 25.2658 15.6704 25.1893C15.8718 24.7569 16.0712 24.3237 16.2688 23.8896C16.3153 23.7896 16.3513 23.6825 16.4043 23.5823C16.4175 23.555 16.4672 23.5253 16.4934 23.532C17.046 23.6723 17.6115 23.6554 18.1735 23.649C18.4712 23.6456 18.7689 23.6456 19.0666 23.649C19.2087 23.6493 19.2224 23.6693 19.1629 23.7996ZM19.3338 22.8267C19.3019 22.8619 19.2585 22.8845 19.2115 22.8905C18.5933 22.8939 17.9712 22.8971 17.353 22.8871C17.1644 22.8832 16.9726 22.8402 16.8305 22.6965C16.6813 22.5461 16.6086 22.3689 16.6845 22.1653C16.8215 21.8058 16.9636 21.4483 17.1109 21.0929C17.2836 20.6856 17.4585 20.2779 17.6471 19.8367C17.5444 19.8301 17.4819 19.8235 17.4225 19.8235C17.2405 19.8203 17.0585 19.8367 16.8765 19.8132C16.6781 19.7902 16.4765 19.7668 16.3212 19.6C16.1688 19.4361 16.1456 19.2422 16.2052 19.0518C16.3009 18.7479 16.4267 18.4539 16.5524 18.1598C16.6715 17.886 16.807 17.6188 16.9296 17.3482C17.0619 17.0574 17.1906 16.7667 17.3198 16.4758C17.4351 16.2196 17.5486 15.9625 17.6603 15.7046C17.6931 15.6242 17.7434 15.5943 17.8325 15.5943C18.319 15.5975 18.8081 15.5943 19.2946 15.5943C19.4563 15.5943 19.4597 15.6108 19.3969 15.7584C19.116 16.4093 18.8311 17.0576 18.5534 17.709C18.52 17.7766 18.5018 17.8507 18.5003 17.9261C18.5101 18.0999 18.5468 18.1266 18.7256 18.1266C19.0891 18.13 19.4531 18.1266 19.8132 18.1266C19.8866 18.1266 19.9624 18.1364 20.0351 18.1398C20.1378 18.1432 20.151 18.1869 20.1078 18.2764C19.9064 18.7084 19.7078 19.1416 19.5121 19.5761C19.3771 19.8839 19.2481 20.1943 19.1158 20.5021C19.0253 20.7073 18.9338 20.912 18.8413 21.1164C18.755 21.3034 18.8144 21.3972 19.0261 21.4006C19.2939 21.4006 19.5618 21.4041 19.8294 21.4006C19.9224 21.4006 19.9688 21.4275 19.9224 21.5275C19.7606 21.8947 19.6014 22.2653 19.4397 22.6331C19.4099 22.6999 19.3771 22.7698 19.3338 22.8267ZM25.3314 25.4398H19.7554C19.6789 25.43 19.6003 25.43 19.4909 25.43V25.4293C19.5301 25.3129 19.5538 25.2328 19.5866 25.1594C19.7955 24.7014 20.0069 24.2472 20.2119 23.7896C20.2583 23.6857 20.3244 23.6595 20.4235 23.6595H21.7002C21.9024 23.6595 21.9118 23.6493 21.9118 23.4486V18.2605C21.9118 18.0835 21.9084 18.0801 21.7302 18.0801C21.4587 18.0801 21.1845 18.0767 20.9132 18.0801C20.8105 18.0801 20.7676 18.0571 20.7676 17.94C20.7742 17.4519 20.7711 16.9644 20.7711 16.477C20.7711 16.3032 20.7745 16.3032 20.9428 16.3032H24.1905C24.3791 16.3032 24.5708 16.3066 24.7594 16.3032C24.8492 16.3032 24.8852 16.3399 24.8818 16.4301C24.8783 16.9378 24.8783 17.4455 24.8783 17.9566C24.8783 18.0468 24.8455 18.0801 24.7526 18.0801C24.4588 18.0767 24.1679 18.0833 23.8727 18.0833C23.7707 18.0833 23.7242 18.1304 23.7242 18.2375C23.7276 19.0557 23.7306 19.8706 23.7306 20.6893C23.7306 21.6179 23.7306 22.5466 23.734 23.4784C23.734 23.6456 23.7504 23.6659 23.9199 23.6659H25.3184C25.4703 23.6659 25.4906 23.6823 25.4936 23.8358C25.4974 24.3239 25.4936 24.8114 25.4974 25.2991C25.497 25.4266 25.4275 25.4398 25.3314 25.4398ZM34.171 23.8859C34.1644 24.6144 33.6813 25.1856 32.997 25.3492C32.805 25.3961 32.6062 25.4093 32.4078 25.4164C32.1039 25.4261 31.7962 25.4195 31.4919 25.4195C31.3033 25.4195 31.2507 25.3824 31.181 25.212C31.0324 24.8583 30.8771 24.5043 30.7245 24.1499L30.6951 24.08C30.642 23.9433 30.6589 23.9192 30.8042 23.9192C31.224 23.916 31.6474 23.9262 32.0672 23.9062C32.3187 23.893 32.4246 23.7791 32.4315 23.5217C32.4412 23.0304 32.4182 22.5395 32.4249 22.0487C32.4283 21.8045 32.1205 21.5405 31.9023 21.5273C31.8617 21.5234 31.8209 21.5213 31.78 21.5209C30.9466 21.5209 30.1097 21.5209 29.2767 21.5241C29.0419 21.5241 29.0253 21.5478 29.0253 21.7849L29.0346 25.2353C29.0346 25.4195 29.0312 25.4227 28.846 25.4227H27.457C27.2784 25.4227 27.2657 25.4091 27.2657 25.2321V23.4552C27.2684 23.4616 27.2716 23.4616 27.275 23.4616V21.6378C27.275 21.5141 27.1926 21.507 27.1067 21.507C26.6532 21.5109 26.1972 21.5209 25.7444 21.5209C25.4364 21.5209 25.4694 21.5573 25.466 21.2366C25.4626 20.7961 25.466 20.3513 25.466 19.9107C25.466 19.7506 25.4824 19.7303 25.6416 19.7269C26.1177 19.7237 26.5908 19.7269 27.0671 19.7237C27.2491 19.7237 27.2589 19.7167 27.262 19.5363C27.2655 19.0958 27.2586 18.6548 27.262 18.2136C27.262 18.1031 27.2156 18.0698 27.1101 18.0698C26.8056 18.0733 26.4978 18.0667 26.1935 18.0698C26.0979 18.0698 26.0646 18.0366 26.0646 17.9398C26.0687 17.4384 26.0687 16.9405 26.0619 16.4394C26.0619 16.3191 26.1079 16.2929 26.2138 16.2929C26.4947 16.2964 26.7764 16.2929 27.0573 16.2929C27.2456 16.2929 27.2557 16.2793 27.2589 16.082C27.2589 15.9656 27.2655 15.8488 27.2589 15.7317C27.2557 15.6212 27.3053 15.5912 27.4076 15.5912C27.8114 15.5946 28.2183 15.5946 28.6214 15.5946H28.8428C29.0184 15.5946 29.0216 15.5946 29.0285 15.775C29.0314 15.882 29.0216 15.9921 29.0246 16.0991C29.028 16.2494 29.0679 16.2893 29.2166 16.2932C29.4681 16.2966 29.7195 16.2966 29.974 16.2966C30.6254 16.2998 31.1914 16.5235 31.6208 17.0214C31.8591 17.2984 32.0078 17.6362 32.0308 18.0067C32.0543 18.3839 32.0379 18.7648 32.0445 19.1424C32.0445 19.283 32.0543 19.4267 32.0609 19.5666C32.0672 19.7071 32.1007 19.7436 32.2429 19.7404C32.5316 19.7301 32.8195 19.7779 33.0895 19.8809C33.6683 20.105 34.0252 20.5121 34.1412 21.1271C34.1637 21.2493 34.1747 21.3734 34.174 21.4977C34.1776 22.2935 34.1769 23.0896 34.171 23.8859ZM33.7637 17.9033C33.4993 18.0771 33.2216 18.0705 32.9005 18.0673C32.8009 18.0673 32.669 18.0705 32.5401 18.0639C32.5071 18.0607 32.4508 18.0202 32.4472 17.9933C32.4176 17.5997 32.3684 17.2018 32.5073 16.8209C32.6299 16.4838 32.9337 16.2863 33.2911 16.28C33.4842 16.2786 33.6725 16.3401 33.8275 16.4551C33.9826 16.5702 34.0961 16.7325 34.1507 16.9177C34.2535 17.2856 34.0815 17.6929 33.7637 17.9033Z" fill="#FF2E4D"/>
</svg>
