<svg width="12" height="12" viewBox="0 0 12 12" fill="none" xmlns="http://www.w3.org/2000/svg">
<path d="M7.56667 11.7667L4 10.5167L0.9 11.7167C0.788889 11.7611 0.680444 11.7751 0.574667 11.7587C0.468889 11.7422 0.371778 11.706 0.283333 11.65C0.194889 11.594 0.125556 11.5191 0.0753333 11.4253C0.0251111 11.3316 0 11.2231 0 11.1V1.75C0 1.60556 0.0417778 1.47778 0.125333 1.36667C0.208889 1.25556 0.322667 1.17222 0.466667 1.11667L3.56667 0.0666666C3.63333 0.0444444 3.70289 0.0277778 3.77533 0.0166667C3.84778 0.00555562 3.92267 0 4 0C4.07733 0 4.15244 0.00555562 4.22533 0.0166667C4.29822 0.0277778 4.36756 0.0444444 4.43333 0.0666666L8 1.31667L11.1 0.116667C11.2111 0.0722222 11.3196 0.0584444 11.4253 0.0753333C11.5311 0.0922222 11.6282 0.128222 11.7167 0.183333C11.8051 0.238444 11.8747 0.313555 11.9253 0.408667C11.976 0.503778 12.0009 0.612 12 0.733333V10.0833C12 10.2278 11.9584 10.3556 11.8753 10.4667C11.7922 10.5778 11.6782 10.6611 11.5333 10.7167L8.43333 11.7667C8.36667 11.7889 8.29733 11.8056 8.22533 11.8167C8.15333 11.8278 8.07822 11.8333 8 11.8333C7.92178 11.8333 7.84689 11.8278 7.77533 11.8167C7.70378 11.8056 7.63422 11.7889 7.56667 11.7667ZM7.33333 10.2833V2.48333L4.66667 1.55V9.35L7.33333 10.2833Z" fill="black"/>
</svg>
