<svg width="12" height="13" viewBox="0 0 12 13" fill="none" xmlns="http://www.w3.org/2000/svg">
<path d="M11.0163 11.6245V11.1937H10.5758V10.7633H10.135V5.16627H10.5758V4.73581H11.0163V4.30535H11.4571V11.6244H11.0163V11.6245ZM10.5758 4.73582H10.135V5.16628H1.32208V4.73582H0.8813V4.30536H0.440657V3.87489H11.0163V4.30536H10.5758V4.73582ZM0.8813 4.73582V5.16628H1.32208V10.7633H0.8813V11.1938H0.440657V11.6245H0V4.30535H0.440643V4.73581H0.881313L0.8813 4.73582ZM0.8813 11.1938H1.32208V10.7633H10.135V11.1938H10.5758V11.6245H11.0163V12.0549H0.440657V11.6245H0.8813V11.1938ZM4.34346 9.03344L5.35082 7.4421L6.35822 8.43384L7.74307 6.39655L9.19094 9.90213H2.76984L3.5881 8.30306L4.34344 9.03344H4.34346ZM3.74165 7.32285C3.37662 7.32285 3.08061 7.03372 3.08061 6.67716C3.08061 6.32038 3.37664 6.03123 3.74165 6.03123C4.10665 6.03123 4.40244 6.32036 4.40244 6.67716C4.40244 7.03372 4.10669 7.32285 3.74165 7.32285ZM9.69428 3.87489L6.46802 1.5284C6.31652 1.64766 6.12688 1.72208 5.91744 1.72208C5.62561 1.72208 5.36887 1.58201 5.20872 1.36856L1.76259 3.87488H1.32193L5.06486 1.06862C5.04757 1.00197 5.03587 0.933073 5.03587 0.86116C5.03587 0.385347 5.43064 0 5.91744 0C6.40395 0 6.79846 0.385361 6.79846 0.86116C6.79846 1.01601 6.75347 1.15909 6.67999 1.2846L10.135 3.87489H9.69427H9.69428Z" fill="#2C2C2C"/>
</svg>
