<?xml version="1.0" standalone="no"?><!DOCTYPE svg PUBLIC "-//W3C//DTD SVG 1.1//EN" "http://www.w3.org/Graphics/SVG/1.1/DTD/svg11.dtd"><svg t="1780672632957" class="icon" viewBox="0 0 1033 1024" version="1.1" xmlns="http://www.w3.org/2000/svg" p-id="11171" xmlns:xlink="http://www.w3.org/1999/xlink" width="201.7578125" height="200"><path d="M46.638298 10.622638C23.101277 0.806128 8.487489 22.336 15.291915 41.969021c7.808 15.617362 501.084596 970.267234 501.084596 970.267234S704.78434 667.432851 704.340426 667.991149c-1.561872 1.673532 313.23234-187.961191 313.23234-187.961192S82.892255 28.248511 46.638298 10.622638z m630.978723 652.868085c-7.400851 0-13.843064-4.045617-17.277276-10.037106L124.941617 139.525447C118.681872 136.347234 114.382979 129.86417 114.382979 122.362553c0-10.634894 8.620936-19.254468 19.254468-19.254468 7.28783 0 13.626553 4.051064 16.897362 10.020766l532.715574 511.350468c8.254638 2.432 14.282894 10.053447 14.282894 19.093787 0 11.001191-8.916426 19.917617-19.916256 19.917617z" fill="#ffffff" p-id="11172"></path></svg>