<svg width="41" height="41" viewBox="0 0 41 41" fill="none" xmlns="http://www.w3.org/2000/svg">
<g clip-path="url(#clip0_224_1737)">
<path d="M13.5087 13.6865C12.7977 13.6865 12.0867 14.1605 12.0867 14.8715C12.0867 15.5825 12.7977 16.0565 13.5087 16.0565C14.2197 16.0565 14.6937 15.5825 14.6937 14.8715C14.6937 14.1309 14.2197 13.6865 13.5087 13.6865ZM23.1366 20.5594C22.6626 20.5594 22.2182 21.063 22.2182 21.5073C22.2182 22.0109 22.6922 22.4553 23.1366 22.4553C23.8476 22.4553 24.3216 21.9813 24.3216 21.5073C24.3216 21.0333 23.8476 20.5594 23.1366 20.5594ZM20.0853 16.0565C20.7963 16.0565 21.2703 15.5529 21.2703 14.8715C21.2703 14.1605 20.7963 13.6865 20.0853 13.6865C19.3743 13.6865 18.6633 14.1605 18.6633 14.8715C18.6633 15.5825 19.3743 16.0565 20.0853 16.0565ZM28.2912 20.5594C27.8172 20.5594 27.3729 21.063 27.3729 21.5073C27.3729 22.0109 27.8468 22.4553 28.2912 22.4553C29.0022 22.4553 29.4762 21.9813 29.4762 21.5073C29.4762 21.0333 29.0022 20.5594 28.2912 20.5594Z" fill="#28C445"/>
<path d="M20.4408 0.118652C9.1539 0.118652 0 9.27256 0 20.5594C0 31.8463 9.1539 41.0002 20.4408 41.0002C31.7276 41.0002 40.8815 31.8463 40.8815 20.5594C40.8815 9.27256 31.7276 0.118652 20.4408 0.118652ZM16.56 25.8029C15.375 25.8029 14.427 25.5659 13.3013 25.2993L10.0426 26.9582L10.961 24.0847C8.62066 22.4257 7.1987 20.2632 7.1987 17.6858C7.1987 13.1533 11.435 9.59842 16.56 9.59842C21.1517 9.59842 25.2103 12.4424 26.0101 16.2639C25.7139 16.2343 25.4176 16.2046 25.1214 16.2046C20.6777 16.2639 17.1821 19.6114 17.1821 23.7588C17.1821 24.4402 17.3006 25.0919 17.4783 25.7437C17.1821 25.7733 16.8562 25.8029 16.56 25.8029ZM30.4241 29.1208L31.1351 31.4908L28.5874 30.0688C27.6691 30.3058 26.7211 30.5428 25.7731 30.5428C21.2999 30.5428 17.7746 27.4619 17.7746 23.6403C17.7449 19.8484 21.2702 16.7675 25.7139 16.7675C29.9501 16.7675 33.6828 19.878 33.6828 23.67C33.6828 25.8029 32.2905 27.6989 30.4241 29.1208Z" fill="#28C445"/>
</g>
<defs>
<clipPath id="clip0_224_1737">
<rect width="41" height="41" fill="white"/>
</clipPath>
</defs>
</svg>
