<svg width="41" height="41" viewBox="0 0 41 41" fill="none" xmlns="http://www.w3.org/2000/svg">
<g clip-path="url(#clip0_224_1732)">
<path d="M0 20.5C0 25.9369 2.15982 31.1512 6.00431 34.9957C9.84881 38.8402 15.0631 41 20.5 41C25.9369 41 31.1512 38.8402 34.9957 34.9957C38.8402 31.1512 41 25.9369 41 20.5C41 15.0631 38.8402 9.84881 34.9957 6.00431C31.1512 2.15982 25.9369 0 20.5 0C15.0631 0 9.84881 2.15982 6.00431 6.00431C2.15982 9.84881 0 15.0631 0 20.5Z" fill="#FFC300"/>
<path d="M17.264 12.915H15.6152C15.3165 13.8024 15.214 14.1597 15.214 14.1597H8.79746C8.79746 14.1597 8.70081 13.8024 8.39624 12.915H6.75039V14.1597H4.78238V15.6474H11.07V16.8774H5.09574V18.4764H11.07V19.6068H5.09574V21.2088H11.07V22.3626H4.78238V23.9382H10.4843C10.4843 23.9382 8.87946 25.994 4.71796 26.1844V27.8625C4.71796 27.8625 9.23674 28.3018 12.0101 24.6908C12.0101 24.6908 13.899 27.798 19.229 27.8683V26.1229C19.229 26.1229 15.6503 26.2313 13.5769 23.9353H19.229V22.3597H12.9941V21.2088H18.9303V19.6068H12.9912V18.4793H18.9274V16.8774H12.9912V15.6474H19.229V14.1626H17.261L17.264 12.918V12.915ZM24.9339 25.0481H26.8521C27.8888 23.0333 28.577 20.8603 28.8875 18.614H30.5567V22.6584C30.5275 23.4638 30.4396 24.2691 30.2902 25.0598H32.0591C32.192 24.2662 32.2606 23.4631 32.2641 22.6584V18.617H33.415V17.0531H32.267V15.7558H30.5626V17.0619H24.395V18.6199H27.0893C26.8079 20.883 26.076 23.0667 24.9368 25.0423V25.0452L24.9339 25.0481Z" fill="black"/>
<path d="M21.73 13.3252V28.0852H34.1764C34.4537 28.0848 34.7282 28.0298 34.9842 27.9233C35.2403 27.8169 35.4728 27.661 35.6686 27.4647C35.8644 27.2683 36.0196 27.0354 36.1254 26.779C36.2311 26.5227 36.2854 26.2481 36.285 25.9708V13.3252H21.73ZM34.6626 25.9708C34.6629 26.0381 34.6501 26.1048 34.6247 26.1671C34.5993 26.2294 34.5618 26.2862 34.5145 26.334C34.4672 26.3819 34.4109 26.42 34.3489 26.4461C34.2869 26.4722 34.2203 26.4858 34.153 26.4862H23.3348V14.9066H34.6596V25.9708H34.6626Z" fill="black"/>
</g>
<defs>
<clipPath id="clip0_224_1732">
<rect width="41" height="41" fill="white"/>
</clipPath>
</defs>
</svg>
